<svg width="24" height="24" viewBox="0 0 24 24" fill="none" xmlns="http://www.w3.org/2000/svg">
<path d="M8.99988 21.5977C10.9999 21.9961 12.9999 21.9961 14.9999 21.5977" stroke="#939393" stroke-width="2" stroke-miterlimit="10" stroke-linecap="round"/>
<path d="M12.0247 3.20312C8.72343 3.20312 6.04055 5.7544 6.04055 8.8937V11.6347C6.04055 12.2132 5.78124 13.0952 5.47206 13.5884L4.3251 15.3999C3.61698 16.5191 4.10569 17.7615 5.40224 18.1788C9.70083 19.5446 14.3385 19.5446 18.6371 18.1788C19.8439 17.7994 20.3725 16.4432 19.7142 15.3999L18.5673 13.5884C18.2681 13.0952 18.0088 12.2132 18.0088 11.6347V8.8937C18.0088 5.76388 15.3159 3.20312 12.0247 3.20312Z" stroke="#262626" stroke-width="2" stroke-miterlimit="10" stroke-linecap="round"/>
<path d="M13.7797 2.81719C12.628 2.48918 11.4076 2.48918 10.2559 2.81719C10.532 2.11243 11.2178 1.61719 12.0178 1.61719C12.8178 1.61719 13.5035 2.11243 13.7797 2.81719Z" stroke="#262626" stroke-width="2" stroke-miterlimit="10" stroke-linecap="round" stroke-linejoin="round"/>
</svg>
