<svg width="32" height="32" viewBox="0 0 32 32" fill="none" xmlns="http://www.w3.org/2000/svg">
<path d="M3.50098 5.9854V14.9155C3.50098 16.0681 4.43534 17.0025 5.58793 17.0025H19.5497C20.126 17.0025 20.5932 16.5353 20.5932 15.959V12.1597C20.5932 11.0584 21.486 10.1656 22.5873 10.1656C23.6886 10.1656 24.5814 11.0584 24.5814 12.1597V17.0025H25.9128C27.0654 17.0025 27.9998 16.0681 27.9998 14.9155V5.98539C27.9998 4.8328 27.0654 3.89844 25.9128 3.89844H5.58793C4.43534 3.89844 3.50098 4.8328 3.50098 5.9854Z" stroke="#C8C8C8" stroke-width="1.5"/>
<path d="M6.91895 17.5785V24.4154C6.91895 25.674 7.93927 26.6943 9.1979 26.6943V26.6943C10.4565 26.6943 11.4769 27.7147 11.4769 28.9733V30.1128M20.5927 30.1128V27.1635C20.5927 26.9044 20.8028 26.6943 21.0619 26.6943V26.6943C23.0054 26.6943 24.5809 25.1188 24.5809 23.1753V12.166C24.5809 11.0647 23.6881 10.1719 22.5868 10.1719V10.1719C21.4855 10.1719 20.5927 11.0647 20.5927 12.166V17.314C20.5927 17.4601 20.4743 17.5785 20.3282 17.5785H18.9974C17.6759 17.5785 16.6045 18.6498 16.6045 19.9714V22.7062" stroke="#939393" stroke-width="1.5"/>
<path d="M10.8245 14.8219C10.6558 14.8219 10.5133 14.7608 10.397 14.6386C10.2807 14.5164 10.2225 14.3636 10.2225 14.1803V13.5019L10.4842 13.7494C10.0946 13.7311 9.75727 13.6791 9.47229 13.5936C9.18731 13.508 8.95468 13.4225 8.77439 13.3369C8.62317 13.2636 8.51558 13.1597 8.4516 13.0252C8.39345 12.8908 8.37018 12.7533 8.38181 12.6127C8.39926 12.4722 8.4487 12.3438 8.53012 12.2277C8.61154 12.1116 8.71623 12.0352 8.84418 11.9986C8.97794 11.9558 9.13206 11.9741 9.30654 12.0536C9.42285 12.1208 9.59733 12.1911 9.82996 12.2644C10.0684 12.3316 10.3621 12.3652 10.7111 12.3652C10.9553 12.3652 11.1473 12.3408 11.2868 12.2919C11.4322 12.243 11.534 12.1788 11.5922 12.0994C11.6561 12.0138 11.6881 11.9222 11.6881 11.8244C11.6881 11.7327 11.6649 11.6563 11.6183 11.5952C11.5776 11.528 11.5078 11.4699 11.409 11.421C11.3101 11.366 11.1734 11.3172 10.999 11.2744L10.0132 11.0544C9.47229 10.926 9.06809 10.7121 8.80056 10.4127C8.53884 10.1071 8.40799 9.71296 8.40799 9.23017C8.40799 8.86349 8.49232 8.53654 8.66098 8.24931C8.83545 7.95598 9.07681 7.71764 9.38505 7.5343C9.69911 7.35096 10.0655 7.23485 10.4842 7.18596L10.2225 7.3418V6.72762C10.2225 6.54428 10.2807 6.3915 10.397 6.26927C10.5133 6.14705 10.6558 6.08594 10.8245 6.08594C10.999 6.08594 11.1444 6.14705 11.2607 6.26927C11.377 6.3915 11.4351 6.54428 11.4351 6.72762V7.3418L11.1734 7.16763C11.3944 7.17374 11.6329 7.21346 11.8888 7.2868C12.1447 7.35402 12.3686 7.44874 12.5605 7.57097C12.6943 7.6443 12.7873 7.74514 12.8397 7.87347C12.8978 8.00181 12.9182 8.1332 12.9007 8.26765C12.8891 8.39598 12.8426 8.5121 12.7612 8.61599C12.6856 8.71988 12.5809 8.79016 12.4471 8.82683C12.3192 8.85738 12.165 8.83294 11.9847 8.75349C11.851 8.69238 11.6998 8.64349 11.5311 8.60682C11.3683 8.56404 11.1589 8.54265 10.903 8.54265C10.5948 8.54265 10.3563 8.60071 10.1876 8.71682C10.0248 8.83294 9.94337 8.98266 9.94337 9.166C9.94337 9.28822 9.9899 9.39212 10.083 9.47767C10.1818 9.55712 10.3592 9.6274 10.6151 9.68851L11.6096 9.91768C12.1621 10.046 12.5692 10.2599 12.831 10.5594C13.0985 10.8527 13.2322 11.2347 13.2322 11.7052C13.2322 12.0719 13.1479 12.3958 12.9793 12.6769C12.8106 12.958 12.5751 13.1872 12.2726 13.3644C11.976 13.5416 11.63 13.6578 11.2345 13.7128L11.4351 13.4928V14.1803C11.4351 14.3636 11.377 14.5164 11.2607 14.6386C11.1502 14.7608 11.0048 14.8219 10.8245 14.8219Z" fill="#3C3C3C"/>
</svg>
