<svg width="40" height="40" viewBox="0 0 40 40" fill="none" xmlns="http://www.w3.org/2000/svg">
<path fill-rule="evenodd" clip-rule="evenodd" d="M27.4941 22.7511C31.2583 21.8763 34.0589 18.5038 34.0589 14.4704C34.0589 14.3598 34.0557 14.2525 34.0516 14.1256L34.051 14.107C34.0478 14.0079 34.044 13.8916 34.043 13.771C33.7034 9.62593 30.3846 6.31876 26.2355 5.9978L26.1711 5.99399C25.9201 5.97912 25.7451 5.96875 25.5589 5.96875C21.5201 5.96875 18.1436 8.7787 17.2755 12.553C16.7896 12.4486 16.294 12.3706 15.79 12.3207C16.7722 7.82777 20.7701 4.46875 25.5589 4.46875C25.7921 4.46875 26.0121 4.48185 26.2543 4.49627L26.3369 4.50117C31.2478 4.874 35.17 8.79684 35.5427 13.7085C35.5427 13.8262 35.5465 13.944 35.5505 14.0654V14.0655V14.0655C35.5546 14.1948 35.5589 14.3283 35.5589 14.4704C35.5589 19.2525 32.2109 23.246 27.7293 24.2362C27.6784 23.7324 27.5995 23.2368 27.4941 22.7511Z" fill="#262626"/>
<path d="M24.4453 25.5641C24.4453 31.0917 19.9721 35.5657 14.4453 35.5657C8.91857 35.5657 4.44531 31.0917 4.44531 25.5641C4.44531 20.0365 8.91857 15.5625 14.4453 15.5625C14.7046 15.5625 14.9477 15.5787 15.2233 15.5949C20.1341 15.9678 24.0563 19.8906 24.4291 24.8022C24.4291 25.0454 24.4453 25.2885 24.4453 25.5641Z" stroke="black" stroke-width="1.5"/>
<path d="M14.3981 20.1187C13.7733 20.1187 13.1484 20.1187 12.5236 20.1187C11.5721 20.1187 10.6207 20.1145 9.66919 20.1202C8.89553 20.1249 8.37344 20.9485 8.68746 21.6721C8.88253 22.1217 9.22704 22.3502 9.70735 22.3498C10.8505 22.3489 11.9938 22.3496 13.1369 22.3498C13.3098 22.3498 13.31 22.3509 13.31 22.5261C13.31 23.518 13.31 24.5102 13.31 25.5022C13.31 25.5354 13.3122 25.5686 13.3098 25.6016C13.3034 25.6891 13.3356 25.7323 13.4256 25.7285C13.4961 25.7257 13.5673 25.7367 13.6383 25.7376C14.1954 25.7456 14.752 25.7903 15.3095 25.7613C15.4641 25.7534 15.4643 25.7509 15.4643 25.5841C15.4643 24.57 15.4643 23.5559 15.4643 22.5416C15.4643 22.3504 15.4643 22.3498 15.6436 22.3496C16.5098 22.3484 17.3762 22.3478 18.2423 22.3469C18.5512 22.3467 18.8606 22.3591 19.1689 22.3434C19.9165 22.3055 20.3979 21.4761 20.0777 20.774C19.876 20.3317 19.5251 20.1182 19.0527 20.1184C17.5011 20.1191 15.9497 20.1189 14.3981 20.1187ZM19.0177 23.9634C19.1305 24.0064 19.2445 24.0458 19.3558 24.0928C19.6364 24.2108 19.912 24.3397 20.1265 24.5716C20.3341 24.7962 20.3331 25.0544 20.1284 25.281C19.9898 25.4342 19.8191 25.5394 19.6402 25.6309C19.2622 25.8238 18.8612 25.9482 18.4532 26.0499C17.3994 26.3123 16.3258 26.4246 15.2466 26.4618C13.9012 26.5081 12.5566 26.478 11.221 26.2723C10.5315 26.1662 9.84934 26.0289 9.19655 25.7658C8.91749 25.6535 8.6461 25.5239 8.42993 25.3002C8.19798 25.0601 8.19969 24.7933 8.43164 24.5516C8.60005 24.376 8.80663 24.2611 9.02238 24.1641C9.1859 24.0903 9.3541 24.0276 9.52017 23.9601C9.01769 24.0959 8.52757 24.2664 8.07177 24.5284C7.81254 24.6772 7.56801 24.8471 7.39192 25.1029C7.19856 25.3837 7.19706 25.6845 7.39 25.9646C7.43306 26.0273 7.48167 26.0873 7.53433 26.1414C7.76201 26.3757 8.03532 26.5402 8.32419 26.676C9.4673 27.2133 10.6874 27.4184 11.9205 27.563C12.3326 27.6113 12.7461 27.6441 13.1608 27.6591C13.307 27.6644 13.3096 27.674 13.3098 27.8336C13.31 28.5933 13.3094 29.3529 13.3107 30.1126C13.3107 30.2045 13.3151 30.2971 13.3247 30.3885C13.3827 30.9345 13.8447 31.3541 14.3849 31.3544C14.9239 31.3548 15.3892 30.9347 15.4487 30.3914C15.4587 30.2999 15.4632 30.2076 15.4634 30.1157C15.4647 29.3414 15.4643 28.5669 15.4639 27.7927C15.4639 27.718 15.4643 27.6571 15.5651 27.6511C15.8269 27.6359 16.0881 27.6111 16.3494 27.5889C17.0745 27.5271 17.7932 27.417 18.5029 27.2516C19.1761 27.0948 19.8366 26.8968 20.4484 26.5544C20.6586 26.4368 20.8567 26.3011 21.0247 26.1223C21.383 25.7412 21.3817 25.3275 21.0212 24.9456C20.8935 24.8103 20.7473 24.7003 20.5917 24.603C20.1035 24.2981 19.5699 24.1111 19.0177 23.9634Z" fill="#262626"/>
<path opacity="0.7" d="M3 16.5556V14.3333C3 8.19683 7.97461 3.22222 14.1111 3.22222H15.2222L10.7778 1M36.3333 22.6667V25.4444C36.3333 31.5809 31.3587 36.5555 25.2222 36.5555H24.1111L28.5556 38.7778" stroke="#C8C8C8" stroke-width="1.5" stroke-linecap="round" stroke-linejoin="round"/>
</svg>
