<svg width="32" height="32" viewBox="0 0 32 32" fill="none" xmlns="http://www.w3.org/2000/svg">
<path d="M5.37479 19L8.09524 22.0476L5.37479 25.0952M2 22.0476H8.01905" stroke="#0D9971" stroke-width="1.5" stroke-miterlimit="10" stroke-linecap="round" stroke-linejoin="round"/>
<mask id="mask0_719_28827" style="mask-type:alpha" maskUnits="userSpaceOnUse" x="2" y="0" width="30" height="31">
<path d="M7.29412 16.4118H2V0H32V31H5.52941L12.5882 22.4902L7.29412 16.4118Z" fill="#D9D9D9"/>
</mask>
<g mask="url(#mask0_719_28827)">
<path d="M20 9.69992H9.21011C6.34026 9.69992 4 12.0806 4 15V10.6881C4 8.9249 5.06461 7.34986 6.68544 6.72598L15.8584 3.20028C16.3219 3.02258 16.8216 2.9617 17.3133 3.02336C17.8049 3.08503 18.2745 3.26714 18.6817 3.55405C19.0889 3.84097 19.4216 4.22412 19.6512 4.67062C19.8809 5.11713 20.0005 5.61365 20 6.11756V9.69992Z" stroke="#C8C8C8" stroke-width="1.5" stroke-linecap="round" stroke-linejoin="round"/>
<path d="M29 16.5V15.4406C29 12.4438 26.5295 10 23.5 10H9.5C6.47047 10 4 12.4438 4 15.4406V23.5594C4 26.5562 6.47047 29 9.5 29H23.5C26.5295 29 29 26.5562 29 23.5594V22.1238" stroke="#939393" stroke-width="1.5"/>
<path fill-rule="evenodd" clip-rule="evenodd" d="M22.1248 16.8785C22.8193 16.3195 23.7716 16 24.8002 16H27.6241C27.6362 16 27.6484 16.0002 27.6605 16.0005C28.9543 16.037 30 16.8633 30 17.8964V20.1036C30 21.1367 28.9543 21.963 27.6605 21.9995C27.6484 21.9998 27.6362 22 27.6241 22H24.9632C23.0495 22 21.1921 20.8957 21.0165 19.2643C20.9068 18.3405 21.3525 17.4776 22.1248 16.8785Z" stroke="#939393" stroke-width="1.5" stroke-linecap="round" stroke-linejoin="round"/>
<path d="M11 16H18" stroke="#C8C8C8" stroke-width="1.5" stroke-linecap="round" stroke-linejoin="round"/>
</g>
</svg>
