<svg width="32" height="32" viewBox="0 0 32 32" fill="none" xmlns="http://www.w3.org/2000/svg">
<path d="M20.3104 16.4326C22.6813 14.0617 22.6813 10.2176 20.3104 7.84673C17.9395 5.47582 14.0955 5.47582 11.7246 7.84673C9.35365 10.2176 9.35365 14.0617 11.7246 16.4326C14.0955 18.8035 17.9395 18.8035 20.3104 16.4326Z" fill="white"/>
<path d="M30.5002 9.20699C30.1393 8.42905 29.7142 7.69121 29.233 6.98544C29.1448 6.85712 29.0566 6.7288 28.9683 6.6085C28.1503 5.47768 27.1799 4.45914 26.0972 3.57693C25.8566 3.38445 25.608 3.19197 25.3593 3.00751C25.1909 2.88721 25.0225 2.76691 24.846 2.65463C24.6054 2.49423 24.3568 2.34185 24.1082 2.19749C23.8034 2.02105 23.4907 1.85263 23.1779 1.69223C23.0255 1.62005 22.8731 1.53985 22.7207 1.47569C22.6325 1.43559 22.5443 1.39548 22.4561 1.35538C20.4832 0.481202 18.3017 0 16.016 0C14.5002 0 13.0245 0.208521 11.6371 0.609522C11.5087 0.641602 11.3884 0.681702 11.2601 0.721803C11.0115 0.802003 10.7629 0.882203 10.5143 0.970423C10.2656 1.05864 10.025 1.15488 9.78443 1.25914C9.54383 1.3634 9.31125 1.46767 9.07867 1.57995C8.61351 1.80451 8.15637 2.05313 7.71527 2.31779C7.60299 2.38195 7.49873 2.45413 7.38645 2.51829C7.06564 2.72681 6.74484 2.94335 6.44008 3.17593C6.23156 3.32831 6.03106 3.48871 5.83858 3.64911C5.74234 3.72931 5.63808 3.80951 5.54184 3.89773C5.34936 4.06615 5.15688 4.23457 4.97242 4.41102C4.87618 4.49924 4.78796 4.58746 4.69974 4.67568C4.51528 4.86014 4.33883 5.0446 4.17041 5.22906C4.00199 5.41352 3.83357 5.61402 3.66515 5.8065C3.58495 5.90274 3.50475 6.007 3.42455 6.10324C3.18395 6.408 2.95939 6.71276 2.74285 7.03356C2.59849 7.25011 2.46215 7.46665 2.32581 7.68319C2.12531 8.01201 1.93283 8.34885 1.75639 8.69371C1.70025 8.80599 1.63609 8.92629 1.57995 9.03857C1.46767 9.27115 1.3634 9.51175 1.25914 9.74433C1.0025 10.3458 0.785963 10.9554 0.609522 11.5889C0.537342 11.8456 0.473182 12.0942 0.409021 12.3589C0.352881 12.6155 0.296741 12.8802 0.248621 13.1368C0.224561 13.2651 0.200501 13.4015 0.184461 13.5298C0.14436 13.7944 0.11228 14.0591 0.0802003 14.3318C0.0240601 14.8691 0 15.4145 0 15.9679C0 16.1042 0 16.2406 0.00802003 16.3769C0.0160401 16.6496 0.0320801 16.9223 0.0481202 17.1949C0.0962403 17.8686 0.192481 18.5343 0.328821 19.1919C0.384961 19.4486 0.441101 19.7132 0.505262 19.9699C0.601502 20.3548 0.713782 20.7318 0.842103 21.1007C1.01052 21.5979 1.203 22.0791 1.41152 22.5523C1.62807 23.0255 1.86065 23.4826 2.11729 23.9318C2.37393 24.3809 2.65463 24.814 2.95137 25.231C3.40049 25.8566 3.88971 26.4501 4.41904 27.0115C7.33031 30.0671 11.4446 31.9678 16 31.9678C17.6601 31.9678 19.2561 31.7192 20.7558 31.246C21.7583 30.9333 22.7207 30.5242 23.627 30.035C23.7393 29.9708 23.8516 29.9067 23.9638 29.8425C24.413 29.5859 24.846 29.3052 25.2631 29.0084C25.3673 28.9363 25.4716 28.8561 25.5759 28.7839C29.4736 25.8646 31.9999 21.213 31.9999 15.9679C32.0079 13.5699 31.4706 11.2681 30.5002 9.20699ZM16.016 6.06314C19.3684 6.06314 22.0872 8.78193 22.0872 12.1343C22.0872 15.4867 19.3684 18.2055 16.016 18.2055C12.6636 18.2055 9.94483 15.4867 9.94483 12.1343C9.94483 8.78193 12.6556 6.06314 16.016 6.06314ZM21.6541 28.2305C21.6461 28.2305 21.6461 28.2385 21.638 28.2385C21.5338 28.2866 21.4295 28.3348 21.3172 28.3829C20.7799 28.6155 20.2185 28.8079 19.6491 28.9683C19.625 28.9764 19.6009 28.9844 19.5849 28.9844C19.4967 29.0084 19.4085 29.0325 19.3202 29.0566C19.2882 29.0646 19.2561 29.0726 19.224 29.0806C19.1438 29.0967 19.0636 29.1207 18.9834 29.1368C18.9433 29.1448 18.9032 29.1528 18.8631 29.1608C18.7909 29.1769 18.7107 29.1929 18.6385 29.2089C18.5984 29.217 18.5503 29.225 18.5102 29.233C18.438 29.249 18.3659 29.2571 18.2937 29.2731C18.2456 29.2811 18.2055 29.2891 18.1573 29.2972C18.0852 29.3052 18.013 29.3212 17.9488 29.3292C17.9007 29.3373 17.8526 29.3453 17.8045 29.3453C17.7323 29.3533 17.6681 29.3613 17.5959 29.3693C17.5478 29.3774 17.4997 29.3774 17.4516 29.3854C17.3794 29.3934 17.3072 29.4014 17.235 29.4094C17.1869 29.4175 17.1388 29.4175 17.0907 29.4255C17.0185 29.4335 16.9463 29.4335 16.8661 29.4415C16.818 29.4415 16.7779 29.4495 16.7298 29.4495C16.6496 29.4576 16.5694 29.4576 16.4892 29.4576C16.4491 29.4576 16.409 29.4576 16.3689 29.4656C16.2486 29.4656 16.1283 29.4736 16.008 29.4736C15.8877 29.4736 15.7674 29.4736 15.6471 29.4656C15.607 29.4656 15.5669 29.4656 15.5268 29.4576C15.4466 29.4576 15.3664 29.4495 15.2862 29.4495C15.2381 29.4495 15.198 29.4415 15.1498 29.4415C15.0777 29.4335 15.0055 29.4335 14.9253 29.4255C14.8772 29.4255 14.829 29.4175 14.7809 29.4094C14.7087 29.4014 14.6365 29.3934 14.5724 29.3854C14.5243 29.3774 14.4761 29.3774 14.428 29.3693C14.3558 29.3613 14.2917 29.3533 14.2195 29.3453C14.1714 29.3373 14.1233 29.3292 14.0751 29.3292C14.003 29.3212 13.9308 29.3052 13.8666 29.2972C13.8185 29.2891 13.7784 29.2811 13.7303 29.2731C13.6581 29.2571 13.5859 29.249 13.5137 29.233C13.4736 29.225 13.4255 29.217 13.3854 29.2089C13.3132 29.1929 13.233 29.1769 13.1609 29.1608C13.1208 29.1528 13.0807 29.1448 13.0406 29.1368C12.9604 29.1207 12.8802 29.0967 12.8 29.0806C12.7679 29.0726 12.7358 29.0646 12.7037 29.0566C12.6155 29.0325 12.5273 29.0084 12.4391 28.9844C12.415 28.9764 12.3909 28.9683 12.3669 28.9683C12.2546 28.9363 12.1503 28.9042 12.0381 28.8721C11.5809 28.7277 11.1398 28.5673 10.6987 28.3829C10.5945 28.3348 10.4902 28.2866 10.3859 28.2385C10.3779 28.2385 10.3779 28.2305 10.3699 28.2305C10.2656 28.1824 10.1694 28.1343 10.0651 28.0861C10.0571 28.0861 10.0571 28.0781 10.0491 28.0781C9.94483 28.03 9.84859 27.9739 9.74433 27.9257C9.74433 27.9257 9.73631 27.9257 9.73631 27.9177C9.61601 27.8536 9.50373 27.7894 9.39145 27.7252C9.35937 27.7092 9.32729 27.6851 9.28719 27.6691C9.19095 27.613 9.09471 27.5568 8.99847 27.5007C8.97441 27.4846 8.95837 27.4766 8.93431 27.4606C8.83005 27.3964 8.72579 27.3242 8.62153 27.2601C8.58143 27.236 8.54133 27.2039 8.50123 27.1799C8.42905 27.1318 8.34885 27.0756 8.27667 27.0275C8.24459 27.0034 8.20449 26.9794 8.17241 26.9553C8.07617 26.8831 7.97993 26.819 7.89171 26.7468C7.84359 26.7147 7.80349 26.6746 7.75537 26.6425C7.69923 26.5944 7.63507 26.5463 7.57893 26.4982C7.53883 26.4661 7.49071 26.426 7.45061 26.3939C7.36238 26.3217 7.28219 26.2496 7.19396 26.1774C7.14584 26.1373 7.09772 26.0892 7.0496 26.0491C7.00148 26.009 6.95336 25.9608 6.91326 25.9207C6.86514 25.8726 6.81702 25.8325 6.7689 25.7844C6.6887 25.7122 6.61652 25.64 6.54434 25.5679C6.49622 25.5197 6.44008 25.4636 6.39196 25.4155C6.35186 25.3754 6.31978 25.3433 6.27968 25.3032C6.23156 25.247 6.17542 25.1909 6.1273 25.1428C6.10324 25.1187 6.07918 25.0866 6.05512 25.0626C6.007 25.0145 5.9669 24.9663 5.91878 24.9102C5.90274 24.8942 5.8867 24.8701 5.86264 24.8541C5.85462 24.846 5.8466 24.838 5.8466 24.83C5.6461 24.5814 5.5258 24.2686 5.5258 23.9237C5.5258 23.4265 5.77442 22.9934 6.15136 22.7368C6.19948 22.7127 6.23958 22.6806 6.2877 22.6566C9.12679 20.9243 12.4551 19.9218 16.024 19.9218C19.5929 19.9218 22.9293 20.9243 25.7603 22.6566C25.8085 22.6806 25.8486 22.7127 25.8967 22.7368C26.2736 22.9934 26.5222 23.4345 26.5222 23.9237C26.5222 24.2686 26.4019 24.5814 26.2014 24.83C26.1934 24.838 26.1854 24.846 26.1854 24.8541C26.1693 24.8701 26.1533 24.8942 26.1293 24.9102C26.0811 24.9583 26.041 25.0145 25.9929 25.0626C25.9689 25.0866 25.9448 25.1187 25.9207 25.1428C25.8726 25.1989 25.8165 25.2551 25.7684 25.3032C25.7363 25.3433 25.6962 25.3754 25.6561 25.4155C25.608 25.4716 25.5518 25.5197 25.5037 25.5679C25.4315 25.64 25.3513 25.7122 25.2791 25.7844C25.231 25.8325 25.1829 25.8726 25.1348 25.9207C25.0866 25.9608 25.0385 26.009 24.9984 26.0491C24.9503 26.0892 24.9022 26.1373 24.8541 26.1774C24.7739 26.2496 24.6856 26.3217 24.5974 26.3939C24.5573 26.426 24.5092 26.4661 24.4691 26.4982C24.413 26.5463 24.3488 26.5944 24.2927 26.6425C24.2445 26.6746 24.2044 26.7147 24.1563 26.7468C24.0601 26.819 23.9719 26.8912 23.8756 26.9553C23.8435 26.9794 23.8034 27.0034 23.7714 27.0275C23.6992 27.0836 23.619 27.1318 23.5468 27.1799C23.5067 27.2039 23.4666 27.236 23.4265 27.2601C23.3222 27.3323 23.218 27.3964 23.1137 27.4606C23.0897 27.4766 23.0736 27.4846 23.0496 27.5007C22.9533 27.5568 22.8571 27.613 22.7608 27.6691C22.7288 27.6851 22.6967 27.7092 22.6566 27.7252C22.5443 27.7894 22.424 27.8536 22.3037 27.9177H22.2957C22.1994 27.9739 22.0952 28.022 21.9909 28.0701C21.9829 28.0701 21.9829 28.0781 21.9749 28.0781C21.8626 28.1343 21.7583 28.1824 21.6541 28.2305Z" fill="#C8C8C8"/>
<path d="M26.1132 24.9105C26.1293 24.8865 26.1533 24.8704 26.1694 24.8464C26.1694 24.8384 26.1774 24.8384 26.1774 24.8303C26.3779 24.5817 26.5062 24.2609 26.5062 23.9161C26.5062 23.4188 26.2576 22.9857 25.8806 22.7291C25.8325 22.705 25.7924 22.673 25.7443 22.6489C22.9052 20.9166 19.5769 19.9141 16.008 19.9141C12.4391 19.9141 9.10274 20.9166 6.27167 22.6489C6.22355 22.673 6.18345 22.705 6.13533 22.7291C5.75839 22.9857 5.50977 23.4268 5.50977 23.9161C5.50977 24.2609 5.63007 24.5817 5.83859 24.8303C5.83859 24.8384 5.84661 24.8384 5.84661 24.8464C5.86265 24.8704 5.88671 24.8865 5.90275 24.9105C6.98545 26.1296 8.27668 27.1561 9.73632 27.9261C9.73632 27.9261 9.74434 27.9261 9.74434 27.9341C9.84058 27.9902 9.94484 28.0384 10.0491 28.0865C10.0571 28.0865 10.0571 28.0945 10.0651 28.0945C10.1694 28.1426 10.2656 28.1907 10.3699 28.2389C10.3779 28.2389 10.3779 28.2469 10.3859 28.2469C10.4902 28.295 10.5945 28.3431 10.6987 28.3912C11.1318 28.5757 11.5809 28.7441 12.0381 28.8805C12.1503 28.9125 12.2546 28.9446 12.3669 28.9767C12.391 28.9847 12.415 28.9927 12.4391 28.9927C12.5273 29.0168 12.6155 29.0409 12.7037 29.0649C12.7358 29.0729 12.7679 29.081 12.8 29.089C12.8802 29.105 12.9604 29.1291 13.0406 29.1451C13.0807 29.1531 13.1208 29.1612 13.1609 29.1692C13.2331 29.1852 13.3133 29.2013 13.3854 29.2173C13.4255 29.2253 13.4737 29.2333 13.5138 29.2414C13.5859 29.2574 13.6581 29.2654 13.7303 29.2815C13.7784 29.2895 13.8185 29.2975 13.8666 29.3055C13.9388 29.3135 14.011 29.3296 14.0752 29.3376C14.1233 29.3456 14.1714 29.3536 14.2195 29.3536C14.2917 29.3617 14.3559 29.3697 14.428 29.3777C14.4762 29.3857 14.5243 29.3857 14.5724 29.3937C14.6446 29.4018 14.7168 29.4098 14.7809 29.4178C14.829 29.4258 14.8772 29.4258 14.9253 29.4338C14.9975 29.4419 15.0696 29.4419 15.1498 29.4499C15.198 29.4499 15.2381 29.4579 15.2862 29.4579C15.3664 29.4659 15.4466 29.4659 15.5268 29.4659C15.5669 29.4659 15.607 29.4659 15.6471 29.4739C15.7674 29.4739 15.8877 29.482 16.008 29.482C16.1283 29.482 16.2486 29.482 16.3689 29.4739C16.409 29.4739 16.4491 29.4739 16.4892 29.4659C16.5694 29.4659 16.6496 29.4579 16.7298 29.4579C16.7779 29.4579 16.818 29.4499 16.8661 29.4499C16.9383 29.4419 17.0105 29.4419 17.0907 29.4338C17.1388 29.4338 17.1869 29.4258 17.235 29.4178C17.3072 29.4098 17.3794 29.4018 17.4516 29.3937C17.4997 29.3857 17.5478 29.3857 17.5959 29.3777C17.6681 29.3697 17.7403 29.3617 17.8045 29.3536C17.8526 29.3456 17.9007 29.3376 17.9488 29.3376C18.021 29.3296 18.0932 29.3135 18.1574 29.3055C18.2055 29.2975 18.2456 29.2895 18.2937 29.2815C18.3659 29.2654 18.4381 29.2574 18.5102 29.2414C18.5503 29.2333 18.5985 29.2253 18.6386 29.2173C18.7107 29.2013 18.7909 29.1852 18.8631 29.1692C18.9032 29.1612 18.9433 29.1531 18.9834 29.1451C19.0636 29.1291 19.1438 29.105 19.224 29.089C19.2561 29.081 19.2882 29.0729 19.3203 29.0649C19.4085 29.0409 19.4967 29.0168 19.5849 28.9927C19.609 28.9847 19.633 28.9847 19.6491 28.9767C20.2185 28.8163 20.7799 28.6158 21.3172 28.3912C21.4215 28.3431 21.5258 28.295 21.638 28.2469C21.6461 28.2469 21.6461 28.2389 21.6541 28.2389C21.7583 28.1907 21.8546 28.1426 21.9588 28.0945C21.9669 28.0945 21.9669 28.0865 21.9749 28.0865C22.0791 28.0384 22.1754 27.9822 22.2796 27.9341H22.2877C23.7393 27.1561 25.0385 26.1296 26.1132 24.9105ZM24.0441 22.1035C24.0601 22.1116 24.0842 22.1276 24.1002 22.1356C24.0842 22.1276 24.0681 22.1196 24.0441 22.1035Z" fill="white"/>
</svg>
