<svg width="200" height="180" viewBox="0 0 200 180" fill="none" xmlns="http://www.w3.org/2000/svg">
<g opacity="0.352609">
<path opacity="0.352609" fill-rule="evenodd" clip-rule="evenodd" d="M43.7803 73.0607L54.3114 41.6875V73.0607H43.7803Z" fill="url(#paint0_linear_1075_45384)"/>
<path opacity="0.352609" fill-rule="evenodd" clip-rule="evenodd" d="M53.9883 41.7188L68.336 62.2034L66.3293 67.5544L53.9883 73.0596V41.7188Z" fill="url(#paint1_linear_1075_45384)"/>
</g>
<path fill-rule="evenodd" clip-rule="evenodd" d="M106.623 62.1698L122.927 41.1953L121.486 66.5588L106.623 62.1698Z" fill="url(#paint2_linear_1075_45384)"/>
<path fill-rule="evenodd" clip-rule="evenodd" d="M122.926 40.875L147.333 68.9849L121.485 66.665L122.926 40.875Z" fill="url(#paint3_linear_1075_45384)"/>
<path fill-rule="evenodd" clip-rule="evenodd" d="M135.379 84.1385L147.172 63.1641L146.13 88.5275L135.379 84.1385Z" fill="url(#paint4_linear_1075_45384)"/>
<path fill-rule="evenodd" clip-rule="evenodd" d="M147.248 62.8438L164.943 90.9536L146.203 88.6337L147.248 62.8438Z" fill="url(#paint5_linear_1075_45384)"/>
<g opacity="0.652297">
<g opacity="0.652297">
<path opacity="0.652297" fill-rule="evenodd" clip-rule="evenodd" d="M84.9109 36.6797H95.3806V41.3987V45.6594L96.3777 52.2501L102.423 72.5949C98.1231 74.9303 93.9985 76.0981 90.0492 76.0981C86.1 76.0981 82.147 74.9303 78.1904 72.5949L83.6646 52.2501L84.9109 45.5425V41.2764V36.6797Z" fill="url(#paint6_linear_1075_45384)"/>
<path opacity="0.652297" d="M90.3068 38.2935C93.2511 38.2935 95.6379 37.5702 95.6379 36.678C95.6379 35.7858 93.2511 35.0625 90.3068 35.0625C87.3624 35.0625 84.9756 35.7858 84.9756 36.678C84.9756 37.5702 87.3624 38.2935 90.3068 38.2935Z" fill="#E1E7FF"/>
<path opacity="0.421526" d="M84.9756 42.8203C84.9756 43.7125 87.2901 44.4358 90.1452 44.4358C93.0003 44.4358 95.3148 43.7125 95.3148 42.8203" stroke="#C2C2C2" stroke-width="2"/>
<path opacity="0.421526" d="M84.9756 46.6953C84.9756 47.5875 87.2901 48.3108 90.1452 48.3108C93.0003 48.3108 95.3148 47.5875 95.3148 46.6953" stroke="#C2C2C2" stroke-width="2"/>
<path opacity="0.421526" d="M84.0059 50.5703C84.0059 51.4625 86.682 52.1858 89.9832 52.1858C93.2845 52.1858 95.9606 51.4625 95.9606 50.5703" stroke="#C2C2C2" stroke-width="2"/>
</g>
<g opacity="0.652297">
<path opacity="0.652297" fill-rule="evenodd" clip-rule="evenodd" d="M91.1888 36.6757C93.4103 36.6757 90.1159 31.6134 95.2112 30.0436C98.8528 28.9216 101.979 33.0702 102.98 30.4915C106.309 21.9252 111.494 23.9814 109.87 22.3286C108.246 20.6757 96.6639 20.0467 91.1888 22.3286C87.9135 23.6936 86.9141 27.5506 86.9141 28.9216C86.9141 32.5844 88.9674 36.6757 91.1888 36.6757Z" fill="#E7E7E7"/>
<path opacity="0.652297" fill-rule="evenodd" clip-rule="evenodd" d="M91.1397 36.6746C93.3357 36.6746 90.0791 32.2554 95.1159 30.8849C98.7156 29.9055 101.979 33.136 102.97 30.8849C106.259 23.4067 111.89 22.7812 108.463 22.7812C107.405 22.7812 104.449 27.5993 101.865 28.7875C100.705 29.3208 98.3985 26.0321 96.7217 26.6492C95.8504 26.9699 92.4681 27.5189 91.1397 29.739C90.1443 31.4026 86.9141 29.0307 86.9141 29.9055C86.9141 33.103 88.9438 36.6746 91.1397 36.6746Z" fill="#E3E3E3"/>
</g>
</g>
<g opacity="0.733538">
<path opacity="0.733538" fill-rule="evenodd" clip-rule="evenodd" d="M39.7416 72.2188V115.676H27.1406L39.7416 72.2188Z" fill="url(#paint7_linear_1075_45384)"/>
<path opacity="0.733538" fill-rule="evenodd" clip-rule="evenodd" d="M39.8291 72.0547L67.8511 107.764L45.5178 115.023L39.7412 115.673L39.8291 72.0547Z" fill="url(#paint8_linear_1075_45384)"/>
</g>
<g opacity="0.456287">
<path opacity="0.456287" fill-rule="evenodd" clip-rule="evenodd" d="M56.4227 80.4983C56.8116 75.3185 60.0147 68.7878 66.0319 60.9062L66.8817 96.609L63.3933 96.0464C58.3573 90.8608 56.0337 85.6781 56.4227 80.4983Z" fill="url(#paint9_linear_1075_45384)"/>
<path opacity="0.456287" fill-rule="evenodd" clip-rule="evenodd" d="M66.0742 60.9062L82.5524 75.5651L79.6326 88.2364L66.0742 96.9323V60.9062Z" fill="url(#paint10_linear_1075_45384)"/>
</g>
<path d="M99.9996 128.761C142.023 128.761 176.09 116.32 176.09 100.974C176.09 85.6281 142.023 73.1875 99.9996 73.1875C57.976 73.1875 23.9092 85.6281 23.9092 100.974C23.9092 116.32 57.976 128.761 99.9996 128.761Z" fill="url(#paint11_linear_1075_45384)"/>
<path d="M42.6494 96.1328H44.588V99.3638H42.6494V96.1328Z" fill="#DFDFDF"/>
<path d="M43.7802 96.7745H47.4958L45.6381 93.5434L43.7802 90.3125L41.9223 93.5434L40.0645 96.7745H43.7802Z" fill="#D9D9D9"/>
<path d="M43.6187 95.1568H46.8497L45.2342 92.4104L43.6187 89.6641L42.0032 92.4104L40.3877 95.1568H43.6187Z" fill="#DFDFDF"/>
<path d="M43.7805 93.2215H46.5269L45.1537 90.7982L43.7805 88.375L42.4074 90.7982L41.0342 93.2215H43.7805Z" fill="#EAEAEA"/>
<g opacity="0.576893">
<path opacity="0.576893" d="M151.696 93.7031H153.635V96.9341H151.696V93.7031Z" fill="#DFDFDF"/>
<path opacity="0.576893" d="M152.827 94.3448H156.543L154.685 91.1138L152.827 87.8828L150.969 91.1138L149.111 94.3448H152.827Z" fill="#D9D9D9"/>
<path opacity="0.576893" d="M152.666 92.7271H155.897L154.281 89.9807L152.666 87.2344L151.05 89.9807L149.435 92.7271H152.666Z" fill="#DFDFDF"/>
<path opacity="0.576893" d="M152.827 90.7918H155.574L154.201 88.3685L152.827 85.9453L151.454 88.3685L150.081 90.7918H152.827Z" fill="#EAEAEA"/>
</g>
<path fill-rule="evenodd" clip-rule="evenodd" d="M97.0791 63L129.066 71.2688L127.9 103L97.2174 94.516L97.0791 63Z" fill="url(#paint12_linear_1075_45384)"/>
<path fill-rule="evenodd" clip-rule="evenodd" d="M73.4922 70.7295L97.2169 63V95.2911L74.2181 103.363L73.4922 70.7295Z" fill="url(#paint13_linear_1075_45384)"/>
<path fill-rule="evenodd" clip-rule="evenodd" d="M73.4922 71.3984L74.2494 103.851L104.799 113.476V79.9861L73.4922 71.3984Z" fill="url(#paint14_linear_1075_45384)"/>
<path fill-rule="evenodd" clip-rule="evenodd" d="M68 84.5984L99.2008 93.7443L104.731 79.9861L73.4235 71.3984L68 84.5984Z" fill="url(#paint15_linear_1075_45384)"/>
<path fill-rule="evenodd" clip-rule="evenodd" d="M104.833 80.4L129.118 72.3672L127.905 103.041L104.833 113.479V80.4Z" fill="url(#paint16_linear_1075_45384)"/>
<path fill-rule="evenodd" clip-rule="evenodd" d="M104.833 80.2424L129.565 72.0469L134.46 84.1813L110.977 94.5126L104.833 80.2424Z" fill="url(#paint17_linear_1075_45384)"/>
<defs>
<linearGradient id="paint0_linear_1075_45384" x1="49.0458" y1="41.6875" x2="49.0458" y2="68.6906" gradientUnits="userSpaceOnUse">
<stop stop-color="#D2DEFB"/>
<stop offset="1" stop-color="#F3F4F8"/>
</linearGradient>
<linearGradient id="paint1_linear_1075_45384" x1="61.1622" y1="41.7188" x2="61.1622" y2="55.4804" gradientUnits="userSpaceOnUse">
<stop stop-color="#E5ECF8"/>
<stop offset="1" stop-color="#F3F4F6"/>
</linearGradient>
<linearGradient id="paint2_linear_1075_45384" x1="114.775" y1="41.1953" x2="114.775" y2="63.0259" gradientUnits="userSpaceOnUse">
<stop stop-color="#DFDFDF"/>
<stop offset="1" stop-color="#DADADA" stop-opacity="0"/>
</linearGradient>
<linearGradient id="paint3_linear_1075_45384" x1="134.409" y1="40.875" x2="134.409" y2="53.2179" gradientUnits="userSpaceOnUse">
<stop stop-color="#DEDEDE"/>
<stop offset="1" stop-color="#E7E7E7" stop-opacity="0"/>
</linearGradient>
<linearGradient id="paint4_linear_1075_45384" x1="141.276" y1="63.1641" x2="141.276" y2="84.9946" gradientUnits="userSpaceOnUse">
<stop stop-color="#E1E1E1"/>
<stop offset="1" stop-color="#DFDFDF" stop-opacity="0.12"/>
</linearGradient>
<linearGradient id="paint5_linear_1075_45384" x1="155.573" y1="62.8438" x2="155.573" y2="75.1867" gradientUnits="userSpaceOnUse">
<stop stop-color="#E3E3E3"/>
<stop offset="1" stop-color="#EAEAEA" stop-opacity="0.5"/>
</linearGradient>
<linearGradient id="paint6_linear_1075_45384" x1="90.3067" y1="36.6797" x2="90.3067" y2="76.0981" gradientUnits="userSpaceOnUse">
<stop stop-color="#D5D5D5"/>
<stop offset="1" stop-color="#DCDCDC" stop-opacity="0.2"/>
</linearGradient>
<linearGradient id="paint7_linear_1075_45384" x1="33.4411" y1="72.2188" x2="33.4411" y2="110.473" gradientUnits="userSpaceOnUse">
<stop stop-color="#CCCCCC"/>
<stop offset="1" stop-color="#DBDBDB" stop-opacity="0"/>
</linearGradient>
<linearGradient id="paint8_linear_1075_45384" x1="53.7962" y1="72.0547" x2="53.7962" y2="115.673" gradientUnits="userSpaceOnUse">
<stop stop-color="#DBDBDB"/>
<stop offset="1" stop-color="#E6E6E6" stop-opacity="0"/>
</linearGradient>
<linearGradient id="paint9_linear_1075_45384" x1="61.6313" y1="60.9062" x2="61.6313" y2="92.3344" gradientUnits="userSpaceOnUse">
<stop stop-color="#C9C9C9"/>
<stop offset="1" stop-color="#DCDCDC" stop-opacity="0.05"/>
</linearGradient>
<linearGradient id="paint10_linear_1075_45384" x1="74.3133" y1="60.9062" x2="74.3133" y2="96.9323" gradientUnits="userSpaceOnUse">
<stop stop-color="#E2E2E2"/>
<stop offset="1" stop-color="#DADADA" stop-opacity="0.09"/>
</linearGradient>
<linearGradient id="paint11_linear_1075_45384" x1="105" y1="91.5054" x2="105.638" y2="106.764" gradientUnits="userSpaceOnUse">
<stop stop-color="#ECECEC"/>
<stop offset="1" stop-color="#EEEEEE" stop-opacity="0.2"/>
</linearGradient>
<linearGradient id="paint12_linear_1075_45384" x1="105.5" y1="112.5" x2="108.808" y2="64.6943" gradientUnits="userSpaceOnUse">
<stop stop-color="#9E9E9E"/>
<stop offset="0.99" stop-color="#E8E8E8"/>
</linearGradient>
<linearGradient id="paint13_linear_1075_45384" x1="79.5" y1="99.5" x2="98.6024" y2="62.6063" gradientUnits="userSpaceOnUse">
<stop stop-color="#CFCFCF"/>
<stop offset="0.99" stop-color="#E0E0E0"/>
</linearGradient>
<linearGradient id="paint14_linear_1075_45384" x1="86.5" y1="107" x2="94.5" y2="74.5" gradientUnits="userSpaceOnUse">
<stop stop-color="#DBDBDB"/>
<stop offset="0.99" stop-color="#EBEBEB"/>
</linearGradient>
<linearGradient id="paint15_linear_1075_45384" x1="68" y1="82.5769" x2="104.731" y2="82.5769" gradientUnits="userSpaceOnUse">
<stop stop-color="#DBDBDB"/>
<stop offset="0.99" stop-color="#F0F0F0"/>
</linearGradient>
<linearGradient id="paint16_linear_1075_45384" x1="118.5" y1="75" x2="113.296" y2="106.896" gradientUnits="userSpaceOnUse">
<stop stop-color="#D6D6D6"/>
<stop offset="0.99" stop-color="#E3E3E3"/>
</linearGradient>
<linearGradient id="paint17_linear_1075_45384" x1="104.833" y1="83.2853" x2="134.46" y2="83.2853" gradientUnits="userSpaceOnUse">
<stop stop-color="#F2F2F2"/>
<stop offset="1" stop-color="#DBDBDB"/>
</linearGradient>
</defs>
</svg>
