<svg width="24" height="24" viewBox="0 0 24 24" fill="none" xmlns="http://www.w3.org/2000/svg">
<path d="M22 6V8.42C22 10 21 11 19.42 11H16V4.01C16 2.9 16.91 2 18.02 2C19.11 2.01 20.11 2.45 20.83 3.17C21.55 3.9 22 4.9 22 6Z" stroke="#939393" stroke-width="2" stroke-miterlimit="10" stroke-linecap="round" stroke-linejoin="round"/>
<path d="M2 7V21C2 21.83 2.94001 22.3 3.60001 21.8L5.31 20.52C5.71 20.22 6.27 20.26 6.63 20.62L8.28999 22.29C8.67999 22.68 9.32001 22.68 9.71001 22.29L11.39 20.61C11.74 20.26 12.3 20.22 12.69 20.52L14.4 21.8C15.06 22.29 16 21.82 16 21V4C16 2.9 16.9 2 18 2H7H6C3 2 2 3.79 2 6V7Z" stroke="#262626" stroke-width="2" stroke-miterlimit="10" stroke-linecap="round" stroke-linejoin="round"/>
<path d="M6.5 13.7522C6.5 14.7222 7.25001 15.5022 8.17001 15.5022H10.05C10.85 15.5022 11.5 14.8222 11.5 13.9722C11.5 13.0622 11.1 12.7322 10.51 12.5222L7.5 11.4722C6.91 11.2622 6.51001 10.9422 6.51001 10.0222C6.51001 9.18219 7.15999 8.49219 7.95999 8.49219H9.84C10.76 8.49219 11.51 9.27219 11.51 10.2422" stroke="#262626" stroke-width="1.5" stroke-linecap="round" stroke-linejoin="round"/>
<path d="M9 7.5V16.5" stroke="#262626" stroke-width="1.5" stroke-linecap="round" stroke-linejoin="round"/>
</svg>
