<svg width="24" height="24" viewBox="0 0 24 24" fill="none" xmlns="http://www.w3.org/2000/svg">
<path d="M4 18V11M7 18V11M10 18V11M14 18V11M17 18V11M20 18V11" stroke="#C8C8C8" stroke-width="1.5" stroke-miterlimit="10" stroke-linecap="round" stroke-linejoin="round"/>
<path d="M12.37 2.15375L21.37 5.75375C21.72 5.89375 22 6.31375 22 6.68375V10.0037C22 10.5537 21.55 11.0037 21 11.0037H3C2.45 11.0037 2 10.5537 2 10.0037V6.68375C2 6.31375 2.28 5.89375 2.63 5.75375L11.63 2.15375C11.83 2.07375 12.17 2.07375 12.37 2.15375ZM22 22.0037H2V19.0037C2 18.4537 2.45 18.0037 3 18.0037H21C21.55 18.0037 22 18.4537 22 19.0037V22.0037Z" stroke="#262626" stroke-width="1.5" stroke-miterlimit="10" stroke-linecap="round" stroke-linejoin="round"/>
<path d="M1 22H23" stroke="#262626" stroke-width="1.5" stroke-miterlimit="10" stroke-linecap="round" stroke-linejoin="round"/>
<path d="M12 8.5C12.197 8.5 12.392 8.4612 12.574 8.38582C12.756 8.31044 12.9214 8.19995 13.0607 8.06066C13.1999 7.92137 13.3104 7.75601 13.3858 7.57403C13.4612 7.39204 13.5 7.19698 13.5 7C13.5 6.80302 13.4612 6.60796 13.3858 6.42597C13.3104 6.24399 13.1999 6.07863 13.0607 5.93934C12.9214 5.80005 12.756 5.68956 12.574 5.61418C12.392 5.5388 12.197 5.5 12 5.5C11.6022 5.5 11.2206 5.65804 10.9393 5.93934C10.658 6.22064 10.5 6.60218 10.5 7C10.5 7.39782 10.658 7.77936 10.9393 8.06066C11.2206 8.34196 11.6022 8.5 12 8.5Z" stroke="#C8C8C8" stroke-width="1.5" stroke-miterlimit="10" stroke-linecap="round" stroke-linejoin="round"/>
</svg>
