<svg width="92" height="93" viewBox="0 0 92 93" fill="none" xmlns="http://www.w3.org/2000/svg">
<rect opacity="0.1" x="28.5" y="29.5" width="35" height="35" rx="2.5" fill="white" stroke="#CE1D0E"/>
<path opacity="0.1" d="M25 21.5C22.5147 21.5 20.5 23.5147 20.5 26V39C20.5 40.3807 21.6193 41.5 23 41.5C24.3807 41.5 25.5 40.3807 25.5 39V26.5H33C34.3807 26.5 35.5 25.3807 35.5 24C35.5 22.6193 34.3807 21.5 33 21.5H25Z" fill="#CE1D0E" stroke="#CE1D0E" stroke-linecap="round"/>
<path opacity="0.1" d="M25 72.5C22.5147 72.5 20.5 70.4853 20.5 68V55C20.5 53.6193 21.6193 52.5 23 52.5C24.3807 52.5 25.5 53.6193 25.5 55V67.5H38C39.3807 67.5 40.5 68.6193 40.5 70C40.5 71.3807 39.3807 72.5 38 72.5H25Z" fill="#CE1D0E" stroke="#CE1D0E" stroke-linecap="round"/>
<path opacity="0.1" d="M67 21.5C69.4853 21.5 71.5 23.5147 71.5 26V39C71.5 40.3807 70.3807 41.5 69 41.5C67.6193 41.5 66.5 40.3807 66.5 39V26.5H59C57.6193 26.5 56.5 25.3807 56.5 24C56.5 22.6193 57.6193 21.5 59 21.5H67Z" fill="#CE1D0E" stroke="#CE1D0E" stroke-linecap="round"/>
<path opacity="0.1" d="M67 72.5C69.4853 72.5 71.5 70.4853 71.5 68V55C71.5 53.6193 70.3807 52.5 69 52.5C67.6193 52.5 66.5 53.6193 66.5 55V67.5H54C52.6193 67.5 51.5 68.6193 51.5 70C51.5 71.3807 52.6193 72.5 54 72.5H67Z" fill="#CE1D0E" stroke="#CE1D0E" stroke-linecap="round"/>
<path d="M33 24H25C23.8954 24 23 24.8954 23 26V39" stroke="white" stroke-width="4" stroke-linecap="round"/>
<path d="M38 70H25C23.8954 70 23 69.1046 23 68V55" stroke="white" stroke-width="4" stroke-linecap="round"/>
<path d="M59 24H67C68.1046 24 69 24.8954 69 26V39" stroke="white" stroke-width="4" stroke-linecap="round"/>
<path d="M54 70H67C68.1046 70 69 69.1046 69 68V55" stroke="white" stroke-width="4" stroke-linecap="round"/>
<path d="M57 36L57 44" stroke="black" stroke-width="2" stroke-linecap="round"/>
<path d="M50 36L50 44" stroke="black" stroke-width="1.5" stroke-linecap="round"/>
<path d="M43 36L43 44" stroke="black" stroke-width="3" stroke-linecap="round"/>
<path d="M36 36L36 44" stroke="black" stroke-width="2" stroke-linecap="round"/>
<path d="M52 22L47.0606 26.5932C46.4773 27.1356 45.5227 27.1356 44.9394 26.5932L40 22" stroke="#CE1D0E" stroke-width="3" stroke-miterlimit="10" stroke-linecap="round" stroke-linejoin="round"/>
<path d="M48.4288 57.4013C50.2506 59.335 52.3407 60.068 54.8551 59.4759C54.6002 59.6869 54.603 59.7024 54.0807 59.8113C51.6719 60.3139 49.5133 59.8444 47.7448 58.0167C46.7554 56.9949 46.3349 55.736 46.4519 54.2972C46.5546 53.0382 47.6782 51.9406 48.9558 51.8522C50.3067 51.7579 51.5292 52.6853 51.8279 54.0318C52.2189 55.7904 50.9032 57.4596 49.1347 57.446C48.933 57.4441 48.7313 57.4207 48.4288 57.4003V57.4013Z" fill="#CE1D0E"/>
<path d="M56.3611 51.9513C54.6592 50.2432 52.7232 49.5491 50.4228 49.9098C50.7615 49.6482 51.1553 49.6259 51.5321 49.5676C54.0826 49.167 56.7359 50.3803 57.907 52.5006C58.4027 53.3969 58.6539 54.3652 58.4179 55.3957C58.083 56.8588 56.715 57.7746 55.2985 57.5199C53.9114 57.2701 52.9144 55.9605 53.0324 54.546C53.1579 53.047 54.3814 51.9212 55.8521 51.9513C55.9891 51.9542 56.1252 51.9513 56.3611 51.9513Z" fill="#CE1D0E"/>
<path d="M46.001 51.124C46.0685 50.2831 46.4214 49.6016 47.1949 49.2283C47.9379 48.8705 48.6723 48.9327 49.3573 49.4188C49.6151 49.6016 49.6789 49.7455 49.3316 49.9205C48.2556 50.4629 47.3747 51.2339 46.7677 52.3062C46.5993 52.6036 46.4719 52.523 46.332 52.2887C46.1199 51.9338 46.0247 51.5459 46 51.123L46.001 51.124Z" fill="#CE1D0E"/>
<path d="M56.6732 49.0124C57.6426 49.0251 58.2638 49.3867 58.6615 50.11C59.0506 50.8168 59.0239 51.5343 58.6424 52.242C58.494 52.5161 58.358 52.625 58.1553 52.2702C57.5627 51.2319 56.7064 50.4746 55.66 49.9467C55.2861 49.7581 55.2985 49.6113 55.621 49.3955C55.9891 49.1486 56.3792 48.993 56.6732 49.0134V49.0124Z" fill="#CE1D0E"/>
<path d="M36 59V50H42V54H39" stroke="black" stroke-width="2" stroke-linecap="round" stroke-linejoin="round"/>
<path fill-rule="evenodd" clip-rule="evenodd" d="M41 57C42.1046 57 43 57.4477 43 58V59C43 59.5523 42.1046 60 41 60C39.8954 60 39 59.5523 39 59V58C39 57.4477 39.8954 57 41 57Z" fill="black"/>
</svg>
