<svg width="24" height="24" viewBox="0 0 24 24" fill="none" xmlns="http://www.w3.org/2000/svg">
<path d="M0.25 22.0037C0.25 22.4137 0.59 22.7537 1 22.7537H23C23.41 22.7537 23.75 22.4137 23.75 22.0037C23.75 21.5938 23.41 21.2537 23 21.2537H22V19.0039C22 18.4539 21.55 18.0039 21 18.0039H3C2.45 18.0039 2 18.4539 2 19.0039V21.2537H1C0.59 21.2537 0.25 21.5938 0.25 22.0037Z" fill="url(#paint0_linear_675_27105)"/>
<path fill-rule="evenodd" clip-rule="evenodd" d="M12.37 2.15375L21.37 5.75375C21.72 5.89375 22 6.30375 22 6.68375V10.0037C22 10.5538 21.55 11.0037 21 11.0037H3C2.45 11.0037 2 10.5538 2 10.0037V6.68375C2 6.30375 2.28 5.89375 2.63 5.75375L11.63 2.15375C11.83 2.07375 12.17 2.07375 12.37 2.15375ZM10.5 7.00375C10.5 7.83375 11.17 8.50375 12 8.50375C12.83 8.50375 13.5 7.83375 13.5 7.00375C13.5 6.17375 12.83 5.50375 12 5.50375C11.17 5.50375 10.5 6.17375 10.5 7.00375Z" fill="url(#paint1_linear_675_27105)"/>
<path d="M7 11H4V18H7V11Z" fill="url(#paint2_linear_675_27105)"/>
<path d="M20 11H17V18H20V11Z" fill="url(#paint3_linear_675_27105)"/>
<path d="M10 11H14V18H10V11Z" fill="url(#paint4_linear_675_27105)"/>
<defs>
<linearGradient id="paint0_linear_675_27105" x1="12" y1="2.09375" x2="15.7652" y2="22.5945" gradientUnits="userSpaceOnUse">
<stop stop-color="#939393"/>
<stop offset="1" stop-color="#262626"/>
</linearGradient>
<linearGradient id="paint1_linear_675_27105" x1="12" y1="2.09375" x2="15.7652" y2="22.5945" gradientUnits="userSpaceOnUse">
<stop stop-color="#939393"/>
<stop offset="1" stop-color="#262626"/>
</linearGradient>
<linearGradient id="paint2_linear_675_27105" x1="12" y1="11" x2="12" y2="18" gradientUnits="userSpaceOnUse">
<stop stop-color="#939393"/>
<stop offset="1" stop-color="#C8C8C8"/>
</linearGradient>
<linearGradient id="paint3_linear_675_27105" x1="12" y1="11" x2="12" y2="18" gradientUnits="userSpaceOnUse">
<stop stop-color="#939393"/>
<stop offset="1" stop-color="#C8C8C8"/>
</linearGradient>
<linearGradient id="paint4_linear_675_27105" x1="12" y1="11" x2="12" y2="18" gradientUnits="userSpaceOnUse">
<stop stop-color="#939393"/>
<stop offset="1" stop-color="#C8C8C8"/>
</linearGradient>
</defs>
</svg>
