<svg width="92" height="93" viewBox="0 0 92 93" fill="none" xmlns="http://www.w3.org/2000/svg">
<g filter="url(#filter0_d_388_13074)">
<rect opacity="0.1" x="28.5" y="29.5" width="35" height="35" rx="2.5" fill="white" stroke="#CE1D0E"/>
<path opacity="0.1" d="M25 21.5C22.5147 21.5 20.5 23.5147 20.5 26V39C20.5 40.3807 21.6193 41.5 23 41.5C24.3807 41.5 25.5 40.3807 25.5 39V26.5H33C34.3807 26.5 35.5 25.3807 35.5 24C35.5 22.6193 34.3807 21.5 33 21.5H25Z" fill="#CE1D0E" stroke="#CE1D0E" stroke-linecap="round"/>
<path opacity="0.1" d="M25 72.5C22.5147 72.5 20.5 70.4853 20.5 68V55C20.5 53.6193 21.6193 52.5 23 52.5C24.3807 52.5 25.5 53.6193 25.5 55V67.5H38C39.3807 67.5 40.5 68.6193 40.5 70C40.5 71.3807 39.3807 72.5 38 72.5H25Z" fill="#CE1D0E" stroke="#CE1D0E" stroke-linecap="round"/>
<path opacity="0.1" d="M67 21.5C69.4853 21.5 71.5 23.5147 71.5 26V39C71.5 40.3807 70.3807 41.5 69 41.5C67.6193 41.5 66.5 40.3807 66.5 39V26.5H59C57.6193 26.5 56.5 25.3807 56.5 24C56.5 22.6193 57.6193 21.5 59 21.5H67Z" fill="#CE1D0E" stroke="#CE1D0E" stroke-linecap="round"/>
<path opacity="0.1" d="M67 72.5C69.4853 72.5 71.5 70.4853 71.5 68V55C71.5 53.6193 70.3807 52.5 69 52.5C67.6193 52.5 66.5 53.6193 66.5 55V67.5H54C52.6193 67.5 51.5 68.6193 51.5 70C51.5 71.3807 52.6193 72.5 54 72.5H67Z" fill="#CE1D0E" stroke="#CE1D0E" stroke-linecap="round"/>
<path d="M33 24H25C23.8954 24 23 24.8954 23 26V39" stroke="white" stroke-width="4" stroke-linecap="round"/>
<path d="M38 70H25C23.8954 70 23 69.1046 23 68V55" stroke="white" stroke-width="4" stroke-linecap="round"/>
<path d="M59 24H67C68.1046 24 69 24.8954 69 26V39" stroke="white" stroke-width="4" stroke-linecap="round"/>
<path d="M54 70H67C68.1046 70 69 69.1046 69 68V55" stroke="white" stroke-width="4" stroke-linecap="round"/>
<path d="M57.0076 60C57.8544 59.9974 58.5015 59.3455 58.5 58.4968C58.4985 57.6624 57.8276 56.9963 56.992 57C56.1795 57.0037 55.4989 57.6892 55.5 58.5024C55.5015 59.3358 56.1728 60.003 57.0073 60H57.0076Z" fill="black"/>
<path d="M52.5076 60C53.3544 59.9974 54.0015 59.3455 54 58.4968C53.9985 57.6624 53.3276 56.9963 52.492 57C51.6795 57.0037 50.9989 57.6892 51 58.5024C51.0015 59.3358 51.6728 60.003 52.5073 60H52.5076Z" fill="black"/>
<path d="M48 59V52.8125C48 51.875 48.5 50 50.5 50C52.5 50 52.3333 50 52.5 50V53.9375H57V50" stroke="black" stroke-width="1.5" stroke-linecap="round"/>
<path d="M57 36L57 44" stroke="black" stroke-width="1.5" stroke-linecap="round"/>
<path d="M50 36L50 44" stroke="black" stroke-width="2.5" stroke-linecap="round"/>
<path d="M43 36L43 44" stroke="black" stroke-width="1.5" stroke-linecap="round"/>
<path d="M36 36L36 44" stroke="black" stroke-width="1.5" stroke-linecap="round"/>
<rect x="35" y="50" width="9" height="9" rx="2" stroke="black" stroke-width="2.5"/>
<path d="M52 27L47.0606 22.4068C46.4773 21.8644 45.5227 21.8644 44.9394 22.4068L40 27" stroke="#CE1D0E" stroke-width="3" stroke-miterlimit="10" stroke-linecap="round" stroke-linejoin="round"/>
</g>
<defs>
<filter id="filter0_d_388_13074" x="0" y="0.5" width="92" height="92.5" filterUnits="userSpaceOnUse" color-interpolation-filters="sRGB">
<feFlood flood-opacity="0" result="BackgroundImageFix"/>
<feColorMatrix in="SourceAlpha" type="matrix" values="0 0 0 0 0 0 0 0 0 0 0 0 0 0 0 0 0 0 127 0" result="hardAlpha"/>
<feOffset/>
<feGaussianBlur stdDeviation="10"/>
<feComposite in2="hardAlpha" operator="out"/>
<feColorMatrix type="matrix" values="0 0 0 0 0.533333 0 0 0 0 0.204444 0 0 0 0 0.204444 0 0 0 0.1 0"/>
<feBlend mode="normal" in2="BackgroundImageFix" result="effect1_dropShadow_388_13074"/>
<feBlend mode="normal" in="SourceGraphic" in2="effect1_dropShadow_388_13074" result="shape"/>
</filter>
</defs>
</svg>
