<svg width="18" height="23" viewBox="0 0 18 23" fill="none" xmlns="http://www.w3.org/2000/svg">
<g id="Group 48062">
<path id="Vector" d="M6 21.6016C8 22 10 22 12 21.6016" stroke="#939393" stroke-width="2" stroke-miterlimit="10" stroke-linecap="round"/>
<path id="Vector_2" d="M9.02466 3.20312C5.72343 3.20312 3.04055 5.7544 3.04055 8.8937V11.6347C3.04055 12.2132 2.78124 13.0952 2.47206 13.5884L1.3251 15.3999C0.616984 16.5191 1.10569 17.7615 2.40224 18.1788C6.70083 19.5446 11.3385 19.5446 15.6371 18.1788C16.8439 17.7994 17.3725 16.4432 16.7142 15.3999L15.5673 13.5884C15.2681 13.0952 15.0088 12.2132 15.0088 11.6347V8.8937C15.0088 5.76388 12.3159 3.20312 9.02466 3.20312Z" stroke="#262626" stroke-width="2" stroke-miterlimit="10" stroke-linecap="round"/>
<path id="Vector_3" d="M11.4411 14.9972L12.5895 9.58317C12.6364 9.354 12.6091 9.18994 12.5075 9.09098C12.4059 8.99202 12.2718 8.97379 12.1052 9.03629L5.35515 11.6379C5.20411 11.6951 5.10125 11.7602 5.04656 11.8332C4.99187 11.9061 4.98536 11.9751 5.02703 12.0402C5.06869 12.1053 5.15203 12.1561 5.27703 12.1925L7.00359 12.7316L11.0114 10.2082C11.1208 10.1352 11.2041 10.1196 11.2614 10.1613C11.2979 10.1873 11.2874 10.2264 11.2302 10.2785L7.98796 13.2082L7.86296 14.9894C7.98276 14.9894 8.09994 14.9321 8.21453 14.8175L9.05828 14.005L10.8083 15.2941C11.1416 15.4816 11.3525 15.3826 11.4411 14.9972Z" fill="#262626"/>
<path id="Vector_4" d="M10.7797 2.81719C9.62796 2.48918 8.40756 2.48918 7.25586 2.81719C7.53205 2.11243 8.21776 1.61719 9.01776 1.61719C9.81776 1.61719 10.5035 2.11243 10.7797 2.81719Z" stroke="#262626" stroke-width="2" stroke-miterlimit="10" stroke-linecap="round" stroke-linejoin="round"/>
</g>
</svg>
