<svg width="42" height="23" viewBox="0 0 42 23" fill="none" xmlns="http://www.w3.org/2000/svg">
<path d="M2.34088 18.344C1.87688 18.344 1.55688 18.32 1.38088 18.272C0.916875 18.144 0.684875 17.992 0.684875 17.816C0.684875 17.72 0.788875 17.672 0.996875 17.672C1.09288 17.672 1.21288 17.68 1.35688 17.696C1.51688 17.728 1.69288 17.76 1.88488 17.792C2.30088 17.888 2.61288 17.936 2.82088 17.936C3.95688 17.936 5.02088 17.416 6.01288 16.376C6.38088 15.976 6.75688 15.496 7.14088 14.936C7.52488 14.36 7.89288 13.704 8.24488 12.968C8.51688 12.408 8.78088 11.84 9.03688 11.264C9.30888 10.688 9.57288 10.112 9.82888 9.536C11.7329 5.6 13.6529 3.048 15.5889 1.88C14.4369 1.496 13.1409 1.304 11.7009 1.304C10.0529 1.304 8.56488 1.568 7.23688 2.096C5.68488 2.72 4.54088 3.656 3.80488 4.904C3.34088 5.688 3.10888 6.472 3.10888 7.256C3.10888 8.072 3.35688 8.752 3.85288 9.296C4.38088 9.84 5.05288 10.112 5.86888 10.112C6.78088 10.112 7.58888 9.784 8.29288 9.128C8.98088 8.488 9.32488 7.704 9.32488 6.776C9.32488 6.152 9.15688 5.64 8.82088 5.24C8.45288 4.824 7.97288 4.616 7.38088 4.616C6.88488 4.616 6.46888 4.76 6.13288 5.048C5.74888 5.384 5.55688 5.784 5.55688 6.248C5.55688 6.632 5.76488 6.824 6.18088 6.824C6.19688 6.824 6.22088 6.808 6.25288 6.776C6.26888 6.744 6.30888 6.712 6.37288 6.68C6.42088 6.696 6.44488 6.728 6.44488 6.776C6.44488 6.936 6.34888 7.016 6.15688 7.016C5.62888 7.016 5.36488 6.752 5.36488 6.224C5.36488 5.712 5.58888 5.264 6.03688 4.88C6.48488 4.512 6.96488 4.328 7.47688 4.328C8.13288 4.328 8.70088 4.552 9.18088 5C9.61288 5.448 9.82888 6.016 9.82888 6.704C9.82888 7.76 9.42088 8.648 8.60488 9.368C7.78888 10.056 6.85288 10.4 5.79688 10.4C4.83688 10.4 4.01288 10.096 3.32488 9.488C2.65288 8.88 2.31688 8.088 2.31688 7.112C2.31688 6.456 2.47688 5.808 2.79688 5.168C3.51688 3.712 4.81288 2.616 6.68488 1.88C8.20488 1.288 9.92488 0.991999 11.8449 0.991999C13.3969 0.991999 14.8209 1.184 16.1169 1.568C16.9169 1.168 17.7409 0.967999 18.5889 0.967999C18.9889 0.967999 19.3809 1.032 19.7649 1.16C20.2289 1.352 20.4609 1.632 20.4609 2C20.4609 2.4 20.3489 2.6 20.1249 2.6C20.0609 2.6 20.0289 2.456 20.0289 2.168C20.0289 1.576 19.5249 1.28 18.5169 1.28C17.8929 1.28 17.2449 1.424 16.5729 1.712C19.1489 2.608 20.4369 4.072 20.4369 6.104C20.4369 7.896 19.6449 9.32 18.0609 10.376C16.7009 11.304 15.0769 11.768 13.1889 11.768C13.0289 11.768 12.8529 11.76 12.6609 11.744C12.4689 11.728 12.2529 11.704 12.0129 11.672C11.3729 11.608 11.0529 11.512 11.0529 11.384C11.0529 11.256 11.0929 11.192 11.1729 11.192H11.1969H11.1729C11.1729 11.208 11.2849 11.24 11.5089 11.288C11.7169 11.352 11.9969 11.384 12.3489 11.384C13.9649 11.384 15.4849 10.92 16.9089 9.992C18.4769 8.936 19.2609 7.632 19.2609 6.08C19.2609 4.24 18.1729 2.888 15.9969 2.024C14.3009 3.064 12.7249 5.424 11.2689 9.104C11.1409 9.456 10.9809 9.896 10.7889 10.424C10.6129 10.936 10.3729 11.536 10.0689 12.224C9.39688 13.776 8.50888 15.048 7.40488 16.04C6.30088 17.016 5.00488 17.728 3.51688 18.176C3.18088 18.288 2.78888 18.344 2.34088 18.344ZM26.7796 17.072C25.9476 17.072 25.5316 16.496 25.5316 15.344C25.5316 14.896 25.6036 14.384 25.7476 13.808C24.6276 15.968 23.5156 17.048 22.4116 17.048C21.8836 17.048 21.4836 16.784 21.2116 16.256C20.9876 15.856 20.8756 15.352 20.8756 14.744C20.8756 14.248 20.9476 13.728 21.0916 13.184C21.3636 12.24 21.9396 11.352 22.8196 10.52C23.7956 9.624 24.7236 9.176 25.6036 9.176C26.4036 9.176 26.8036 9.656 26.8036 10.616C26.8036 11.032 26.7156 11.52 26.5396 12.08L28.0036 9.2H28.0756C28.1236 9.28 28.2276 9.32 28.3876 9.32C28.7076 9.32 29.1156 9.128 29.6116 8.744L29.6596 8.792L27.6196 12.776C26.8036 14.36 26.3956 15.56 26.3956 16.376C26.3956 16.696 26.5396 16.856 26.8276 16.856C27.0196 16.856 27.2516 16.784 27.5236 16.64C27.7956 16.496 28.0836 16.256 28.3876 15.92C28.7716 15.472 29.0996 15.048 29.3716 14.648C29.6596 14.232 29.9876 13.672 30.3556 12.968C30.4036 12.888 30.4516 12.848 30.4996 12.848C30.5956 12.848 30.5956 12.928 30.4996 13.088C30.2116 13.632 29.8996 14.176 29.5636 14.72C29.2436 15.248 28.8516 15.744 28.3876 16.208C27.8116 16.784 27.2756 17.072 26.7796 17.072ZM22.5076 16.88C23.4036 16.88 24.5556 15.616 25.9636 13.088C26.4116 12.288 26.6356 11.48 26.6356 10.664C26.6356 9.8 26.3556 9.368 25.7956 9.368C25.1876 9.368 24.4996 9.872 23.7316 10.88C23.4276 11.296 23.1636 11.704 22.9396 12.104C22.7316 12.504 22.5636 12.888 22.4356 13.256C22.0996 14.216 21.9316 15.08 21.9316 15.848C21.9316 16.536 22.1236 16.88 22.5076 16.88ZM30.8339 22.736C29.9219 22.736 29.4659 22.384 29.4659 21.68C29.4659 20.896 30.1219 20.16 31.4339 19.472C31.5939 19.392 31.8499 19.296 32.2019 19.184C32.5699 19.072 33.0259 18.936 33.5699 18.776C33.9539 18.68 34.2979 18.584 34.6019 18.488C34.9059 18.408 35.1779 18.328 35.4179 18.248C35.4979 18.024 35.6019 17.752 35.7299 17.432C35.8579 17.128 35.9859 16.776 36.1139 16.376C36.1939 16.168 36.2739 15.912 36.3539 15.608C36.4499 15.288 36.5699 14.92 36.7139 14.504C36.8579 14.088 37.0419 13.632 37.2659 13.136C37.5059 12.64 37.7859 12.12 38.1059 11.576C37.9459 11.768 37.7539 12.024 37.5299 12.344C37.3219 12.648 37.0819 13.008 36.8099 13.424C36.0419 14.608 35.5219 15.36 35.2499 15.68C34.4659 16.64 33.7539 17.12 33.1139 17.12C32.6979 17.12 32.3539 16.984 32.0819 16.712C31.8259 16.408 31.6979 16.056 31.6979 15.656C31.6979 14.936 31.9619 14.12 32.4899 13.208C32.5699 13.08 32.7299 12.84 32.9699 12.488C33.2099 12.12 33.5459 11.624 33.9779 11C34.5059 10.232 34.7699 9.68 34.7699 9.344C34.7699 9.168 34.6659 9.08 34.4579 9.08C34.2659 9.08 34.0819 9.144 33.9059 9.272C33.7139 9.4 33.6019 9.552 33.5699 9.728L33.5219 9.776H33.4499L33.4019 9.752C33.4339 9.544 33.5699 9.352 33.8099 9.176C34.0339 9.016 34.2579 8.912 34.4819 8.864C34.5619 8.848 34.6419 8.84 34.7219 8.84C34.8179 8.824 34.9059 8.816 34.9859 8.816C35.5779 8.816 35.8739 9.048 35.8739 9.512C35.8739 10.136 35.3379 11.176 34.2659 12.632C33.2579 14.04 32.7539 15.2 32.7539 16.112C32.7539 16.608 32.9539 16.856 33.3539 16.856C33.9939 16.856 35.1139 15.624 36.7139 13.16C38.0579 11.08 39.1699 9.72 40.0499 9.08C40.4659 8.76 40.7859 8.6 41.0099 8.6C41.1859 8.6 41.2739 8.688 41.2739 8.864C41.2739 9.04 41.0819 9.192 40.6979 9.32C39.8179 9.576 39.0819 10.208 38.4899 11.216C38.2659 11.616 38.0659 12.048 37.8899 12.512C37.7139 12.976 37.5859 13.48 37.5059 14.024C37.4419 14.328 37.3859 14.632 37.3379 14.936C37.3059 15.24 37.2659 15.544 37.2179 15.848C37.1539 16.152 37.0899 16.448 37.0259 16.736C36.9619 17.024 36.8739 17.336 36.7619 17.672C38.8579 16.712 40.4259 15.176 41.4659 13.064C41.5139 12.984 41.5539 12.944 41.5859 12.944C41.6659 12.944 41.6819 13.008 41.6339 13.136C41.1059 14.24 40.4259 15.2 39.5939 16.016C38.7779 16.816 37.8019 17.456 36.6659 17.936C36.2659 18.928 35.8019 19.752 35.2739 20.408C34.7619 21.08 34.0339 21.664 33.0899 22.16C32.3699 22.544 31.6179 22.736 30.8339 22.736ZM30.9779 22.52C32.7379 22.52 34.1699 21.216 35.2739 18.608C35.0339 18.688 34.7619 18.776 34.4579 18.872C34.1539 18.984 33.8179 19.088 33.4499 19.184C33.2419 19.248 32.9779 19.328 32.6579 19.424C32.3379 19.536 31.9699 19.672 31.5539 19.832C31.3619 19.944 31.1779 20.064 31.0019 20.192C30.8259 20.336 30.6499 20.496 30.4739 20.672C30.0739 21.104 29.8739 21.496 29.8739 21.848C29.8739 22.296 30.2419 22.52 30.9779 22.52Z" fill="#CE1D0E"/>
<path d="M1.38088 18.272L1.24791 18.754L1.24932 18.7544L1.38088 18.272ZM1.35688 17.696L1.45493 17.2057L1.43366 17.2015L1.41209 17.1991L1.35688 17.696ZM1.88488 17.792L1.9973 17.3048L1.98228 17.3013L1.96707 17.2988L1.88488 17.792ZM6.01288 16.376L6.37474 16.7212L6.38084 16.7145L6.01288 16.376ZM7.14088 14.936L7.55328 15.2188L7.5569 15.2134L7.14088 14.936ZM8.24487 12.968L7.79511 12.7495L7.79381 12.7523L8.24487 12.968ZM9.03688 11.264L8.58463 11.0504L8.57997 11.0609L9.03688 11.264ZM9.82888 9.536L9.37877 9.31827L9.37525 9.32554L9.37197 9.33293L9.82888 9.536ZM15.5889 1.88L15.8472 2.30812L16.775 1.74834L15.747 1.40566L15.5889 1.88ZM7.23688 2.096L7.05214 1.63137L7.05036 1.63209L7.23688 2.096ZM3.80488 4.904L4.23516 5.15866L4.23556 5.15799L3.80488 4.904ZM3.85287 9.296L3.4834 9.63288L3.48865 9.63864L3.49409 9.64424L3.85287 9.296ZM8.29288 9.128L7.95232 8.76191L7.95201 8.7622L8.29288 9.128ZM8.82088 5.24L9.20385 4.9183L9.19537 4.90871L8.82088 5.24ZM6.13288 5.048L5.80746 4.66835L5.80362 4.67171L6.13288 5.048ZM6.25288 6.776L6.60643 7.12955L6.6638 7.07218L6.70009 6.99961L6.25288 6.776ZM6.37288 6.68L6.53099 6.20566L6.33451 6.14017L6.14927 6.23279L6.37288 6.68ZM6.03688 4.88L5.71944 4.49355L5.71148 4.50037L6.03688 4.88ZM9.18088 5L9.5408 4.65293L9.53166 4.64346L9.52203 4.63447L9.18088 5ZM8.60488 9.368L8.92726 9.75036L8.93569 9.74292L8.60488 9.368ZM3.32487 9.488L2.9894 9.85879L2.99378 9.86266L3.32487 9.488ZM2.79688 5.168L3.24409 5.39161L3.24507 5.38963L2.79688 5.168ZM6.68488 1.88L6.50341 1.41409L6.50193 1.41467L6.68488 1.88ZM16.1169 1.568L15.9748 2.0474L16.164 2.10345L16.3405 2.01521L16.1169 1.568ZM19.7649 1.16L19.9561 0.697991L19.9397 0.691241L19.923 0.685658L19.7649 1.16ZM16.5729 1.712L16.3759 1.25243L15.1904 1.76051L16.4086 2.18425L16.5729 1.712ZM18.0609 10.376L17.7835 9.95995L17.7791 9.96299L18.0609 10.376ZM12.6609 11.744L12.7024 11.2457L12.6609 11.744ZM12.0129 11.672L12.079 11.1764L12.0708 11.1753L12.0626 11.1745L12.0129 11.672ZM11.1729 11.192V10.692H10.6729V11.192H11.1729ZM11.5089 11.288L11.6559 10.8101L11.635 10.8037L11.6136 10.7991L11.5089 11.288ZM16.9089 9.992L17.1819 10.4109L17.1882 10.4067L16.9089 9.992ZM15.9969 2.024L16.1814 1.55929L15.9488 1.46695L15.7355 1.59776L15.9969 2.024ZM11.2689 9.104L10.8038 8.91998L10.799 8.93313L11.2689 9.104ZM10.7889 10.424L10.3189 10.2531L10.316 10.2615L10.7889 10.424ZM10.0689 12.224L9.61152 12.0219L9.61004 12.0253L10.0689 12.224ZM7.40487 16.04L7.73606 16.4146L7.73906 16.4119L7.40487 16.04ZM3.51688 18.176L3.37273 17.6972L3.36571 17.6993L3.35876 17.7017L3.51688 18.176ZM2.34088 17.844C1.87362 17.844 1.61599 17.8179 1.51243 17.7896L1.24932 18.7544C1.49776 18.8221 1.88013 18.844 2.34088 18.844V17.844ZM1.51384 17.79C1.30083 17.7312 1.1849 17.6778 1.13289 17.6438C1.10875 17.628 1.11843 17.6291 1.13658 17.6548C1.15855 17.6858 1.18488 17.7424 1.18488 17.816H0.184875C0.184875 18.1534 0.412325 18.3672 0.584862 18.4802C0.764846 18.5982 0.996925 18.6848 1.24791 18.754L1.51384 17.79ZM1.18488 17.816C1.18488 17.8881 1.16331 17.9715 1.10971 18.0457C1.05985 18.1148 1.00239 18.1481 0.972404 18.162C0.94341 18.1754 0.927493 18.1766 0.936404 18.1752C0.943791 18.174 0.962838 18.172 0.996875 18.172V17.172C0.87015 17.172 0.704701 17.1842 0.553346 17.254C0.471364 17.2919 0.374896 17.3552 0.299036 17.4603C0.21944 17.5705 0.184875 17.6959 0.184875 17.816H1.18488ZM0.996875 18.172C1.06768 18.172 1.16778 18.1781 1.30166 18.1929L1.41209 17.1991C1.25797 17.1819 1.11807 17.172 0.996875 17.172V18.172ZM1.25882 18.1863C1.42497 18.2195 1.60635 18.2525 1.80268 18.2852L1.96707 17.2988C1.7794 17.2675 1.60878 17.2365 1.45493 17.2057L1.25882 18.1863ZM1.77245 18.2792C2.19524 18.3768 2.55324 18.436 2.82088 18.436V17.436C2.67251 17.436 2.40651 17.3992 1.9973 17.3048L1.77245 18.2792ZM2.82088 18.436C4.12776 18.436 5.31484 17.8322 6.37468 16.7211L5.65107 16.0309C4.72691 16.9998 3.78599 17.436 2.82088 17.436V18.436ZM6.38084 16.7145C6.76833 16.2933 7.15895 15.7938 7.55324 15.2188L6.72851 14.6532C6.35481 15.1982 5.99342 15.6587 5.64491 16.0375L6.38084 16.7145ZM7.5569 15.2134C7.95609 14.6146 8.33548 13.9374 8.69594 13.1837L7.79381 12.7523C7.45027 13.4706 7.09366 14.1054 6.72485 14.6586L7.5569 15.2134ZM8.69463 13.1865C8.96913 12.6213 9.23551 12.0482 9.49378 11.4671L8.57997 11.0609C8.32624 11.6318 8.06462 12.1947 7.79512 12.7495L8.69463 13.1865ZM9.489 11.4775C9.76262 10.8981 10.0282 10.3186 10.2858 9.73907L9.37197 9.33293C9.11754 9.9054 8.85513 10.4779 8.58475 11.0505L9.489 11.4775ZM10.279 9.75373C12.1738 5.8367 14.0413 3.39762 15.8472 2.30812L15.3306 1.45188C13.2645 2.69838 11.2919 5.3633 9.37877 9.31827L10.279 9.75373ZM15.747 1.40566C14.5355 1.00184 13.1849 0.803999 11.7009 0.803999V1.804C13.0968 1.804 14.3382 1.99016 15.4308 2.35434L15.747 1.40566ZM11.7009 0.803999C9.99919 0.803999 8.44722 1.07671 7.05215 1.63138L7.42161 2.56062C8.68254 2.05929 10.1066 1.804 11.7009 1.804V0.803999ZM7.05036 1.63209C5.41255 2.29059 4.17462 3.29277 3.37419 4.65001L4.23556 5.15799C4.90713 4.01923 5.9572 3.14941 7.4234 2.55991L7.05036 1.63209ZM3.37459 4.64934C2.87244 5.49779 2.60888 6.36876 2.60888 7.256H3.60888C3.60888 6.57524 3.80931 5.87821 4.23516 5.15866L3.37459 4.64934ZM2.60888 7.256C2.60888 8.18202 2.89407 8.98652 3.4834 9.63288L4.22235 8.95912C3.81968 8.51748 3.60888 7.96197 3.60888 7.256H2.60888ZM3.49409 9.64424C4.12394 10.2932 4.92915 10.612 5.86888 10.612V9.612C5.1766 9.612 4.63781 9.38682 4.21167 8.94776L3.49409 9.64424ZM5.86888 10.612C6.91484 10.612 7.84279 10.2308 8.63374 9.4938L7.95201 8.7622C7.33496 9.33718 6.64691 9.612 5.86888 9.612V10.612ZM8.63343 9.49409C9.42166 8.76085 9.82487 7.84485 9.82487 6.776H8.82488C8.82488 7.56315 8.54009 8.21515 7.95232 8.76191L8.63343 9.49409ZM9.82487 6.776C9.82487 6.05827 9.62947 5.42524 9.20373 4.9184L8.43802 5.5616C8.68428 5.85476 8.82488 6.24573 8.82488 6.776H9.82487ZM9.19537 4.90871C8.72562 4.37769 8.10544 4.116 7.38088 4.116V5.116C7.84031 5.116 8.18013 5.27031 8.44638 5.57129L9.19537 4.90871ZM7.38088 4.116C6.78092 4.116 6.24515 4.29323 5.80748 4.66837L6.45827 5.42763C6.6926 5.22677 6.98883 5.116 7.38088 5.116V4.116ZM5.80362 4.67171C5.32326 5.09203 5.05688 5.62443 5.05688 6.248H6.05688C6.05688 5.94357 6.17449 5.67597 6.46213 5.42429L5.80362 4.67171ZM5.05688 6.248C5.05688 6.52781 5.13452 6.82658 5.37374 7.0474C5.60539 7.26124 5.90529 7.324 6.18088 7.324V6.324C6.04046 6.324 6.02836 6.29076 6.05202 6.3126C6.06368 6.32336 6.06719 6.33306 6.06615 6.33018C6.0641 6.32448 6.05688 6.3002 6.05688 6.248H5.05688ZM6.18088 7.324C6.33917 7.324 6.45132 7.25263 6.48823 7.22802C6.53849 7.19451 6.57868 7.1573 6.60643 7.12955L5.89932 6.42245C5.89507 6.4267 5.90726 6.41348 5.93352 6.39598C5.9473 6.38679 5.97283 6.3711 6.00868 6.35676C6.04351 6.34283 6.1034 6.324 6.18088 6.324V7.324ZM6.70009 6.99961C6.66489 7.07 6.6211 7.10733 6.60722 7.11844C6.5913 7.13117 6.58459 7.13316 6.59648 7.12721L6.14927 6.23279C6.06945 6.27269 5.89898 6.36575 5.80566 6.55239L6.70009 6.99961ZM6.21476 7.15434C6.16789 7.13872 6.0903 7.10057 6.02688 7.016C5.96177 6.9292 5.94488 6.83793 5.94488 6.776H6.94488C6.94488 6.66607 6.91598 6.5348 6.82687 6.416C6.73945 6.29943 6.62586 6.23728 6.53099 6.20566L6.21476 7.15434ZM5.94488 6.776C5.94488 6.76703 5.94613 6.73658 5.96264 6.6953C5.98037 6.65097 6.01078 6.6069 6.05278 6.57189C6.13183 6.50601 6.19576 6.516 6.15688 6.516V7.516C6.31 7.516 6.51792 7.48599 6.69297 7.34011C6.88548 7.17968 6.94488 6.95947 6.94488 6.776H5.94488ZM6.15688 6.516C5.96995 6.516 5.92159 6.46961 5.91643 6.46445C5.91127 6.45929 5.86487 6.41093 5.86487 6.224H4.86487C4.86487 6.56507 4.95048 6.91271 5.20932 7.17155C5.46816 7.43039 5.8158 7.516 6.15688 7.516V6.516ZM5.86487 6.224C5.86487 5.88101 6.00631 5.56474 6.36227 5.25963L5.71148 4.50037C5.17144 4.96326 4.86487 5.54299 4.86487 6.224H5.86487ZM6.35425 5.26636C6.72533 4.96154 7.09588 4.828 7.47688 4.828V3.828C6.83388 3.828 6.24442 4.06246 5.71951 4.49364L6.35425 5.26636ZM7.47688 4.828C8.0061 4.828 8.45221 5.00385 8.83972 5.36553L9.52203 4.63447C8.94954 4.10015 8.25965 3.828 7.47688 3.828V4.828ZM8.82095 5.34707C9.15326 5.69168 9.32888 6.13056 9.32888 6.704H10.3289C10.3289 5.90143 10.0725 5.20432 9.5408 4.65293L8.82095 5.34707ZM9.32888 6.704C9.32888 7.61162 8.98624 8.36469 8.27407 8.99308L8.93569 9.74292C9.85551 8.93131 10.3289 7.90838 10.3289 6.704H9.32888ZM8.28258 8.98574C7.5557 9.5986 6.73354 9.9 5.79688 9.9V10.9C6.97221 10.9 8.02205 10.5134 8.92717 9.75026L8.28258 8.98574ZM5.79688 9.9C4.95275 9.9 4.24813 9.63664 3.65597 9.11333L2.99378 9.86266C3.77762 10.5554 4.721 10.9 5.79688 10.9V9.9ZM3.66033 9.11723C3.10183 8.61192 2.81688 7.95893 2.81688 7.112H1.81688C1.81688 8.21707 2.20392 9.14808 2.98942 9.85877L3.66033 9.11723ZM2.81688 7.112C2.81688 6.54049 2.9556 5.96859 3.24409 5.39161L2.34966 4.94439C1.99816 5.64741 1.81688 6.37151 1.81688 7.112H2.81688ZM3.24507 5.38963C3.89768 4.06991 5.08267 3.04718 6.86782 2.34533L6.50193 1.41467C4.54309 2.18481 3.13607 3.35408 2.34868 4.94636L3.24507 5.38963ZM6.86633 2.34591C8.31923 1.78005 9.97617 1.492 11.8449 1.492V0.491999C9.87358 0.491999 8.09052 0.795951 6.50342 1.41409L6.86633 2.34591ZM11.8449 1.492C13.3558 1.492 14.7312 1.67891 15.9748 2.0474L16.2589 1.0886C14.9106 0.689089 13.438 0.491999 11.8449 0.491999V1.492ZM16.3405 2.01521C17.075 1.64797 17.8228 1.468 18.5889 1.468V0.467999C17.659 0.467999 16.7588 0.688025 15.8933 1.12079L16.3405 2.01521ZM18.5889 1.468C18.9345 1.468 19.2731 1.52313 19.6068 1.63434L19.923 0.685658C19.4886 0.540869 19.0433 0.467999 18.5889 0.467999V1.468ZM19.5737 1.62201C19.7576 1.6981 19.8539 1.77507 19.9019 1.83301C19.9426 1.88214 19.9609 1.93095 19.9609 2H20.9609C20.9609 1.70105 20.8632 1.42586 20.6719 1.19499C20.4879 0.972932 20.2362 0.813895 19.9561 0.697991L19.5737 1.62201ZM19.9609 2C19.9609 2.07811 19.9553 2.13365 19.9484 2.17075C19.9413 2.20885 19.9349 2.216 19.9406 2.2057C19.948 2.19246 19.9706 2.15993 20.0161 2.13285C20.0622 2.10542 20.1042 2.1 20.1249 2.1V3.1C20.2575 3.1 20.3975 3.06957 20.5276 2.99215C20.6571 2.91507 20.7497 2.80754 20.8131 2.6943C20.9315 2.48295 20.9609 2.23028 20.9609 2H19.9609ZM20.1249 2.1C20.2167 2.1 20.3025 2.12751 20.3728 2.17266C20.4382 2.21474 20.4777 2.2638 20.4989 2.29565C20.5371 2.35287 20.5437 2.39565 20.541 2.38353C20.5372 2.36658 20.5289 2.30308 20.5289 2.168H19.5289C19.5289 2.32092 19.5366 2.47342 19.5648 2.60046C19.5781 2.66035 19.6047 2.75713 19.6669 2.85035C19.7356 2.95345 19.8858 3.1 20.1249 3.1V2.1ZM20.5289 2.168C20.5289 1.69751 20.3114 1.31006 19.9041 1.07086C19.5381 0.855885 19.0535 0.779999 18.5169 0.779999V1.78C18.9883 1.78 19.2597 1.85211 19.3977 1.93314C19.4944 1.98993 19.5289 2.04649 19.5289 2.168H20.5289ZM18.5169 0.779999C17.8146 0.779999 17.0996 0.942274 16.3759 1.25243L16.7698 2.17157C17.3901 1.90572 17.9712 1.78 18.5169 1.78V0.779999ZM16.4086 2.18425C17.646 2.61463 18.5267 3.16574 19.0955 3.81227C19.6556 4.44887 19.9369 5.20398 19.9369 6.104H20.9369C20.9369 4.97202 20.5742 3.97913 19.8463 3.15173C19.1271 2.33426 18.0758 1.70536 16.7371 1.23975L16.4086 2.18425ZM19.9369 6.104C19.9369 7.71677 19.2388 8.98982 17.7835 9.95997L18.3382 10.792C20.051 9.65018 20.9369 8.07522 20.9369 6.104H19.9369ZM17.7791 9.96299C16.5139 10.8263 14.9915 11.268 13.1889 11.268V12.268C15.1622 12.268 16.8879 11.7817 18.3427 10.789L17.7791 9.96299ZM13.1889 11.268C13.0452 11.268 12.8833 11.2608 12.7024 11.2457L12.6194 12.2423C12.8225 12.2592 13.0126 12.268 13.1889 12.268V11.268ZM12.7024 11.2457C12.5204 11.2306 12.3128 11.2076 12.079 11.1764L11.9468 12.1676C12.193 12.2004 12.4174 12.2254 12.6194 12.2423L12.7024 11.2457ZM12.0626 11.1745C11.751 11.1433 11.5495 11.107 11.4366 11.0731C11.3768 11.0552 11.3756 11.0476 11.3996 11.0644C11.42 11.0787 11.5529 11.1803 11.5529 11.384H10.5529C10.5529 11.6517 10.7257 11.8133 10.8261 11.8836C10.9301 11.9564 11.049 12.0008 11.1492 12.0309C11.3563 12.093 11.6348 12.1367 11.9631 12.1695L12.0626 11.1745ZM11.5529 11.384C11.5529 11.3559 11.5602 11.4197 11.5069 11.505C11.4757 11.5549 11.4262 11.6076 11.3557 11.6452C11.2865 11.6821 11.2205 11.692 11.1729 11.692V10.692C10.973 10.692 10.7767 10.7865 10.6589 10.975C10.5656 11.1243 10.5529 11.2841 10.5529 11.384H11.5529ZM11.1729 11.692H11.1969V10.692H11.1729V11.692ZM11.1969 10.692H11.1729V11.692H11.1969V10.692ZM10.6729 11.192C10.6729 11.3428 10.7386 11.4496 10.7795 11.5022C10.821 11.5556 10.8643 11.589 10.8875 11.6056C10.9344 11.6391 10.978 11.6585 10.9969 11.6666C11.0406 11.6853 11.086 11.6992 11.1195 11.7088C11.1922 11.7295 11.2895 11.7523 11.4041 11.7769L11.6136 10.7991C11.5043 10.7757 11.4336 10.7585 11.3942 10.7472C11.3718 10.7408 11.3752 10.7407 11.3908 10.7474C11.3958 10.7495 11.4289 10.7634 11.4687 10.7919C11.4885 10.806 11.5291 10.8371 11.5689 10.8882C11.608 10.9385 11.6729 11.0432 11.6729 11.192H10.6729ZM11.3618 11.7659C11.6376 11.8507 11.9738 11.884 12.3489 11.884V10.884C12.02 10.884 11.7961 10.8533 11.6559 10.8101L11.3618 11.7659ZM12.3489 11.884C14.067 11.884 15.6811 11.3889 17.1819 10.4109L16.6359 9.5731C15.2887 10.4511 13.8628 10.884 12.3489 10.884V11.884ZM17.1882 10.4067C18.8598 9.28092 19.7609 7.83586 19.7609 6.08H18.7609C18.7609 7.42814 18.0939 8.59108 16.6296 9.57728L17.1882 10.4067ZM19.7609 6.08C19.7609 5.05336 19.4544 4.14296 18.8344 3.37253C18.2206 2.60981 17.3227 2.01246 16.1814 1.55929L15.8124 2.48871C16.847 2.89954 17.5811 3.41019 18.0553 3.99947C18.5234 4.58104 18.7609 5.26664 18.7609 6.08H19.7609ZM15.7355 1.59776C13.8923 2.72802 12.2667 5.22291 10.8039 8.92005L11.7338 9.28795C13.183 5.62508 14.7094 3.39998 16.2583 2.45024L15.7355 1.59776ZM10.799 8.93313C10.671 9.28513 10.511 9.72513 10.319 10.2531L11.2588 10.5949C11.4508 10.0669 11.6108 9.62687 11.7388 9.27487L10.799 8.93313ZM10.316 10.2615C10.146 10.7561 9.91183 11.3423 9.61153 12.0219L10.5262 12.4261C10.8339 11.7297 11.0797 11.1159 11.2617 10.5865L10.316 10.2615ZM9.61004 12.0253C8.96265 13.5205 8.11416 14.7305 7.07069 15.6681L7.73906 16.4119C8.90359 15.3655 9.8311 14.0315 10.5277 12.4227L9.61004 12.0253ZM7.07371 15.6654C6.02673 16.591 4.79545 17.2689 3.37273 17.6972L3.66102 18.6548C5.2143 18.1871 6.57502 17.441 7.73604 16.4146L7.07371 15.6654ZM3.35876 17.7017C3.08519 17.7928 2.7487 17.844 2.34088 17.844V18.844C2.82905 18.844 3.27656 18.7832 3.67499 18.6503L3.35876 17.7017ZM25.7476 13.808L26.2327 13.9293L25.3037 13.5778L25.7476 13.808ZM21.2116 16.256L21.6561 16.027L21.6521 16.0193L21.6479 16.0117L21.2116 16.256ZM21.0916 13.184L20.6111 13.0455L20.6083 13.0561L21.0916 13.184ZM22.8196 10.52L22.4815 10.1516L22.4761 10.1567L22.8196 10.52ZM26.5396 12.08L26.0626 11.9301L26.9853 12.3066L26.5396 12.08ZM28.0036 9.2V8.7H27.6969L27.5579 8.97343L28.0036 9.2ZM28.0756 9.2L28.5044 8.94275L28.3587 8.7H28.0756V9.2ZM29.6116 8.744L29.9652 8.39045L29.6538 8.07904L29.3055 8.34864L29.6116 8.744ZM29.6596 8.792L30.1047 9.01989L30.2706 8.69586L30.0132 8.43845L29.6596 8.792ZM27.6196 12.776L28.0641 13.005L28.0647 13.0039L27.6196 12.776ZM27.5236 16.64L27.2897 16.1981L27.5236 16.64ZM28.3876 15.92L28.7585 16.2556L28.7673 16.2454L28.3876 15.92ZM29.3716 14.648L28.9605 14.3634L28.9582 14.3668L29.3716 14.648ZM30.3556 12.968L29.9269 12.7108L29.9193 12.7234L29.9125 12.7364L30.3556 12.968ZM30.4996 13.088L30.0709 12.8308L30.064 12.8422L30.0577 12.8541L30.4996 13.088ZM29.5636 14.72L29.1382 14.4572L29.136 14.4608L29.5636 14.72ZM28.3876 16.208L28.7412 16.5616L28.3876 16.208ZM25.9636 13.088L25.5274 12.8437L25.5268 12.8447L25.9636 13.088ZM23.7316 10.88L23.3338 10.5769L23.3279 10.585L23.7316 10.88ZM22.9396 12.104L22.5034 11.8597L22.4996 11.8665L22.496 11.8733L22.9396 12.104ZM22.4356 13.256L22.9076 13.4212L22.9079 13.4203L22.4356 13.256ZM26.7796 16.572C26.4929 16.572 26.346 16.4816 26.249 16.3473C26.1301 16.1827 26.0316 15.8748 26.0316 15.344H25.0316C25.0316 15.9652 25.1411 16.5213 25.4383 16.9327C25.7572 17.3744 26.2344 17.572 26.7796 17.572V16.572ZM26.0316 15.344C26.0316 14.9476 26.0956 14.4776 26.2327 13.9293L25.2626 13.6867C25.1116 14.2904 25.0316 14.8444 25.0316 15.344H26.0316ZM25.3037 13.5778C24.7561 14.6341 24.2272 15.3918 23.7253 15.8793C23.2245 16.3657 22.7887 16.548 22.4116 16.548V17.548C23.1385 17.548 23.8107 17.1903 24.422 16.5967C25.032 16.0042 25.6192 15.1419 26.1915 14.0382L25.3037 13.5778ZM22.4116 16.548C22.2352 16.548 22.1011 16.5053 21.991 16.4327C21.8778 16.358 21.7621 16.2328 21.6561 16.027L20.7671 16.485C20.9331 16.8072 21.1534 17.078 21.4402 17.2673C21.7302 17.4587 22.0601 17.548 22.4116 17.548V16.548ZM21.6479 16.0117C21.4771 15.7068 21.3756 15.2934 21.3756 14.744H20.3756C20.3756 15.4106 20.4981 16.0052 20.7754 16.5003L21.6479 16.0117ZM21.3756 14.744C21.3756 14.2965 21.4406 13.8197 21.575 13.3119L20.6083 13.0561C20.4547 13.6363 20.3756 14.1995 20.3756 14.744H21.3756ZM21.5721 13.3224C21.8142 12.4822 22.333 11.6681 23.1631 10.8833L22.4761 10.1567C21.5462 11.0359 20.9131 11.9978 20.6112 13.0456L21.5721 13.3224ZM23.1578 10.8883C24.087 10.0353 24.8992 9.676 25.6036 9.676V8.676C24.548 8.676 23.5043 9.21271 22.4815 10.1517L23.1578 10.8883ZM25.6036 9.676C25.9002 9.676 26.0399 9.7606 26.1195 9.85609C26.2136 9.96904 26.3036 10.1931 26.3036 10.616H27.3036C27.3036 10.0789 27.1936 9.58296 26.8877 9.21591C26.5673 8.8314 26.1071 8.676 25.6036 8.676V9.676ZM26.3036 10.616C26.3036 10.965 26.2291 11.4003 26.0626 11.9301L27.0166 12.2299C27.2021 11.6397 27.3036 11.099 27.3036 10.616H26.3036ZM26.9853 12.3066L28.4493 9.42657L27.5579 8.97343L26.0939 11.8534L26.9853 12.3066ZM28.0036 9.7H28.0756V8.7H28.0036V9.7ZM27.6469 9.45725C27.8358 9.77204 28.1798 9.82 28.3876 9.82V8.82C28.3445 8.82 28.3447 8.81394 28.3691 8.82333C28.4003 8.83532 28.4604 8.86948 28.5044 8.94275L27.6469 9.45725ZM28.3876 9.82C28.8835 9.82 29.4054 9.53597 29.9177 9.13936L29.3055 8.34864C28.8258 8.72003 28.5317 8.82 28.3876 8.82V9.82ZM29.2581 9.09755L29.3061 9.14555L30.0132 8.43845L29.9652 8.39045L29.2581 9.09755ZM29.2146 8.56411L27.1746 12.5481L28.0647 13.0039L30.1047 9.01989L29.2146 8.56411ZM27.1751 12.547C26.3561 14.1369 25.8956 15.4302 25.8956 16.376H26.8956C26.8956 15.6898 27.2512 14.5831 28.0641 13.005L27.1751 12.547ZM25.8956 16.376C25.8956 16.6008 25.9451 16.8628 26.132 17.0705C26.3279 17.2882 26.5921 17.356 26.8276 17.356V16.356C26.8006 16.356 26.7987 16.3521 26.8123 16.3571C26.8194 16.3598 26.8298 16.3645 26.8417 16.3725C26.8538 16.3805 26.8652 16.3904 26.8753 16.4015C26.8962 16.4247 26.9018 16.4431 26.9015 16.4423C26.9008 16.4398 26.8956 16.4201 26.8956 16.376H25.8956ZM26.8276 17.356C27.1361 17.356 27.4524 17.2435 27.7576 17.0819L27.2897 16.1981C27.0508 16.3245 26.9032 16.356 26.8276 16.356V17.356ZM27.7576 17.0819C28.0992 16.901 28.432 16.6162 28.7584 16.2555L28.0169 15.5845C27.7352 15.8958 27.492 16.091 27.2897 16.1981L27.7576 17.0819ZM28.7673 16.2454C29.1608 15.7862 29.5007 15.3474 29.7851 14.9292L28.9582 14.3668C28.6986 14.7486 28.3824 15.1578 28.008 15.5946L28.7673 16.2454ZM29.7827 14.9326C30.0871 14.4929 30.4259 13.9129 30.7987 13.1996L29.9125 12.7364C29.5494 13.4311 29.2321 13.9711 28.9605 14.3634L29.7827 14.9326ZM30.7844 13.2252C30.7923 13.212 30.7825 13.2332 30.7477 13.2621C30.7094 13.2941 30.624 13.348 30.4996 13.348V12.348C30.1609 12.348 29.9837 12.6161 29.9269 12.7108L30.7844 13.2252ZM30.4996 13.348C30.4665 13.348 30.3486 13.343 30.2335 13.2471C30.101 13.1367 30.0716 12.9915 30.0716 12.908C30.0716 12.8694 30.0772 12.8405 30.0809 12.8251C30.0848 12.809 30.0886 12.7993 30.0894 12.7973C30.0906 12.7943 30.0866 12.8045 30.0709 12.8308L30.9284 13.3452C30.9606 13.2915 30.9927 13.2317 31.0179 13.1687C31.0407 13.1115 31.0716 13.0187 31.0716 12.908C31.0716 12.7845 31.0302 12.6093 30.8737 12.4789C30.7347 12.363 30.5807 12.348 30.4996 12.348V13.348ZM30.0577 12.8541C29.7751 13.3879 29.4686 13.9223 29.1382 14.4573L29.989 14.9827C30.3306 14.4297 30.6481 13.8761 30.9415 13.3219L30.0577 12.8541ZM29.136 14.4608C28.8381 14.9524 28.4715 15.4171 28.0341 15.8544L28.7412 16.5616C29.2318 16.0709 29.6492 15.5436 29.9912 14.9792L29.136 14.4608ZM28.0341 15.8544C27.4945 16.394 27.0795 16.572 26.7796 16.572V17.572C27.4718 17.572 28.1287 17.174 28.7412 16.5616L28.0341 15.8544ZM22.5076 17.38C23.1804 17.38 23.82 16.9197 24.4132 16.2688C25.0269 15.5954 25.6887 14.6092 26.4004 13.3313L25.5268 12.8447C24.8306 14.0948 24.2124 15.0046 23.6741 15.5952C23.1153 16.2083 22.7309 16.38 22.5076 16.38V17.38ZM26.3999 13.3323C26.8844 12.4671 27.1356 11.5757 27.1356 10.664H26.1356C26.1356 11.3843 25.9388 12.1089 25.5274 12.8437L26.3999 13.3323ZM27.1356 10.664C27.1356 10.194 27.0624 9.7551 26.8452 9.42005C26.6038 9.0476 26.2274 8.868 25.7956 8.868V9.868C25.9239 9.868 25.9675 9.9044 26.006 9.96395C26.0689 10.0609 26.1356 10.27 26.1356 10.664H27.1356ZM25.7956 8.868C25.3502 8.868 24.9243 9.05244 24.5281 9.34265C24.1316 9.63317 23.7343 10.0514 23.3339 10.577L24.1293 11.183C24.4969 10.7006 24.8277 10.3628 25.1191 10.1494C25.4109 9.93556 25.6331 9.868 25.7956 9.868V8.868ZM23.3279 10.585C23.0135 11.0153 22.7383 11.4402 22.5034 11.8597L23.3759 12.3483C23.5889 11.9678 23.8418 11.5767 24.1353 11.175L23.3279 10.585ZM22.496 11.8733C22.2786 12.2915 22.1004 12.6977 21.9634 13.0917L22.9079 13.4203C23.0268 13.0783 23.1847 12.7165 23.3832 12.3347L22.496 11.8733ZM21.9637 13.0908C21.6148 14.0877 21.4316 15.0088 21.4316 15.848H22.4316C22.4316 15.1512 22.5845 14.3443 22.9076 13.4212L21.9637 13.0908ZM21.4316 15.848C21.4316 16.2221 21.481 16.5825 21.639 16.8657C21.7223 17.0148 21.8397 17.1495 21.9993 17.2448C22.1594 17.3404 22.3347 17.38 22.5076 17.38V16.38C22.4886 16.38 22.4958 16.3766 22.512 16.3862C22.5275 16.3955 22.525 16.4012 22.5122 16.3783C22.4783 16.3175 22.4316 16.1619 22.4316 15.848H21.4316ZM31.4339 19.472L31.2103 19.0247L31.2017 19.0292L31.4339 19.472ZM32.2019 19.184L32.0563 18.7056L32.0503 18.7075L32.2019 19.184ZM33.5699 18.776L33.4487 18.2909L33.4387 18.2934L33.4289 18.2963L33.5699 18.776ZM34.6019 18.488L34.4747 18.0045L34.463 18.0076L34.4514 18.0112L34.6019 18.488ZM35.4179 18.248L35.5761 18.7223L35.8069 18.6454L35.8888 18.4162L35.4179 18.248ZM35.7299 17.432L35.269 17.2379L35.2657 17.2463L35.7299 17.432ZM36.1139 16.376L35.6473 16.1965L35.6421 16.2099L35.6377 16.2236L36.1139 16.376ZM36.3539 15.608L35.875 15.4643L35.8726 15.4725L35.8704 15.4808L36.3539 15.608ZM36.7139 14.504L37.1864 14.6676L36.7139 14.504ZM37.2659 13.136L36.8157 12.9181L36.8103 12.9302L37.2659 13.136ZM38.1059 11.576L38.5369 11.8295L37.7218 11.2559L38.1059 11.576ZM37.5299 12.344L37.1203 12.0573L37.1173 12.0617L37.5299 12.344ZM36.8099 13.424L36.3915 13.1504L36.3905 13.1519L36.8099 13.424ZM35.2499 15.68L34.8689 15.3561L34.8627 15.3637L35.2499 15.68ZM32.0819 16.712L31.6995 17.0341L31.7133 17.0504L31.7284 17.0656L32.0819 16.712ZM32.4899 13.208L32.0659 12.943L32.0615 12.9502L32.0572 12.9575L32.4899 13.208ZM32.9699 12.488L33.3831 12.7697L33.3887 12.7611L32.9699 12.488ZM33.9779 11L34.389 11.2846L34.39 11.2833L33.9779 11ZM33.9059 9.272L34.1833 9.68802L34.1918 9.68237L34.2 9.67637L33.9059 9.272ZM33.5699 9.728L33.9235 10.0816L34.0339 9.97111L34.0619 9.81744L33.5699 9.728ZM33.5219 9.776V10.276H33.729L33.8755 10.1296L33.5219 9.776ZM33.4499 9.776L33.2263 10.2232L33.3319 10.276H33.4499V9.776ZM33.4019 9.752L32.9078 9.67597L32.8523 10.0362L33.1783 10.1992L33.4019 9.752ZM33.8099 9.176L33.5193 8.7691L33.5143 8.7728L33.8099 9.176ZM34.4819 8.864L34.3839 8.37366L34.3772 8.3751L34.4819 8.864ZM34.7219 8.84V9.34H34.7633L34.8041 9.3332L34.7219 8.84ZM34.2659 12.632L33.8633 12.3355L33.8594 12.3409L34.2659 12.632ZM36.7139 13.16L37.1333 13.4323L37.1339 13.4314L36.7139 13.16ZM40.0499 9.08L40.3441 9.48451L40.3548 9.47631L40.0499 9.08ZM40.6979 9.32L40.8376 9.8001L40.8469 9.7974L40.8561 9.79434L40.6979 9.32ZM38.4899 11.216L38.0587 10.9627L38.0537 10.9717L38.4899 11.216ZM37.8899 12.512L37.4224 12.3347L37.8899 12.512ZM37.5059 14.024L37.9952 14.127L37.9984 14.112L38.0006 14.0967L37.5059 14.024ZM37.3379 14.936L36.8441 14.858L36.842 14.8708L36.8407 14.8837L37.3379 14.936ZM37.2179 15.848L37.7072 15.951L37.7098 15.9386L37.7118 15.926L37.2179 15.848ZM37.0259 16.736L37.514 16.8445H37.514L37.0259 16.736ZM36.7619 17.672L36.2876 17.5139L35.9236 18.6059L36.9701 18.1266L36.7619 17.672ZM41.4659 13.064L41.0372 12.8068L41.0265 12.8245L41.0174 12.8431L41.4659 13.064ZM41.6339 13.136L42.085 13.3517L42.0944 13.332L42.1021 13.3116L41.6339 13.136ZM39.5939 16.016L39.944 16.373L39.944 16.373L39.5939 16.016ZM36.6659 17.936L36.4713 17.4754L36.2799 17.5563L36.2022 17.749L36.6659 17.936ZM35.2739 20.408L34.8843 20.0944L34.8762 20.105L35.2739 20.408ZM33.0899 22.16L32.8574 21.7174L32.8546 21.7188L33.0899 22.16ZM35.2739 18.608L35.7344 18.8029L36.1659 17.7836L35.1158 18.1337L35.2739 18.608ZM34.4579 18.872L34.3074 18.3952L34.2961 18.3988L34.2851 18.4028L34.4579 18.872ZM33.4499 19.184L33.3237 18.7002L33.3132 18.7029L33.3029 18.7061L33.4499 19.184ZM32.6579 19.424L32.5143 18.9451L32.5034 18.9483L32.4928 18.9521L32.6579 19.424ZM31.5539 19.832L31.3744 19.3653L31.3368 19.3798L31.302 19.4001L31.5539 19.832ZM31.0019 20.192L30.7079 19.7876L30.6963 19.796L30.6853 19.805L31.0019 20.192ZM30.4739 20.672L30.1204 20.3184L30.1136 20.3252L30.1071 20.3323L30.4739 20.672ZM30.8339 22.236C30.4283 22.236 30.216 22.1553 30.1135 22.0762C30.0355 22.016 29.9659 21.9153 29.9659 21.68H28.9659C28.9659 22.1487 29.1244 22.576 29.5024 22.8678C29.8559 23.1407 30.3275 23.236 30.8339 23.236V22.236ZM29.9659 21.68C29.9659 21.2028 30.3732 20.5928 31.6661 19.9148L31.2017 19.0292C29.8707 19.7272 28.9659 20.5892 28.9659 21.68H29.9659ZM31.6575 19.9192C31.781 19.8575 32.006 19.771 32.3535 19.6605L32.0503 18.7075C31.6939 18.821 31.4069 18.9265 31.2103 19.0248L31.6575 19.9192ZM32.3475 19.6623C32.7135 19.551 33.1679 19.4154 33.711 19.2557L33.4289 18.2963C32.884 18.4566 32.4264 18.5931 32.0564 18.7057L32.3475 19.6623ZM33.6912 19.2611C34.0828 19.1632 34.4368 19.0645 34.7525 18.9648L34.4514 18.0112C34.159 18.1035 33.8251 18.1968 33.4487 18.2909L33.6912 19.2611ZM34.7292 18.9715C35.0412 18.8894 35.3238 18.8064 35.5761 18.7223L35.2598 17.7737C35.0321 17.8496 34.7707 17.9266 34.4747 18.0045L34.7292 18.9715ZM35.8888 18.4162C35.966 18.2 36.0676 17.9342 36.1942 17.6177L35.2657 17.2463C35.1363 17.5698 35.0299 17.848 34.9471 18.0798L35.8888 18.4162ZM36.1908 17.626C36.3258 17.3053 36.4588 16.9389 36.5901 16.5284L35.6377 16.2236C35.5131 16.6131 35.3901 16.9507 35.2691 17.238L36.1908 17.626ZM36.5806 16.5555C36.6692 16.3251 36.7545 16.0504 36.8375 15.7352L35.8704 15.4808C35.7933 15.7736 35.7186 16.0109 35.6473 16.1965L36.5806 16.5555ZM36.8329 15.7517C36.9263 15.44 37.044 15.0789 37.1864 14.6676L36.2414 14.3404C36.0958 14.7611 35.9735 15.136 35.875 15.4643L36.8329 15.7517ZM37.1864 14.6676C37.3245 14.2688 37.5025 13.8271 37.7216 13.3418L36.8103 12.9302C36.5814 13.4369 36.3914 13.9072 36.2414 14.3404L37.1864 14.6676ZM37.716 13.3538C37.9494 12.8715 38.2228 12.3635 38.5369 11.8295L37.675 11.3225C37.3491 11.8765 37.0625 12.4085 36.8159 12.9182L37.716 13.3538ZM37.7218 11.2559C37.5494 11.4629 37.3484 11.7314 37.1203 12.0573L37.9396 12.6307C38.1594 12.3166 38.3425 12.0731 38.49 11.8961L37.7218 11.2559ZM37.1173 12.0617C36.9068 12.3693 36.6648 12.7324 36.3915 13.1504L37.2284 13.6976C37.4991 13.2836 37.7371 12.9267 37.9426 12.6263L37.1173 12.0617ZM36.3905 13.1519C35.618 14.3427 35.116 15.0656 34.869 15.3562L35.6309 16.0038C35.9279 15.6544 36.4659 14.8733 37.2294 13.6961L36.3905 13.1519ZM34.8627 15.3637C34.0927 16.3065 33.5109 16.62 33.1139 16.62V17.62C33.997 17.62 34.8392 16.9735 35.6372 15.9963L34.8627 15.3637ZM33.1139 16.62C32.8186 16.62 32.6056 16.5286 32.4355 16.3584L31.7284 17.0656C32.1023 17.4394 32.5773 17.62 33.1139 17.62V16.62ZM32.4644 16.3899C32.2848 16.1767 32.1979 15.939 32.1979 15.656H31.1979C31.1979 16.173 31.367 16.6393 31.6995 17.0341L32.4644 16.3899ZM32.1979 15.656C32.1979 15.0555 32.4196 14.3274 32.9227 13.4585L32.0572 12.9575C31.5042 13.9126 31.1979 14.8165 31.1979 15.656H32.1979ZM32.9139 13.473C32.9879 13.3547 33.1424 13.1227 33.3831 12.7697L32.5568 12.2063C32.3175 12.5573 32.152 12.8053 32.0659 12.943L32.9139 13.473ZM33.3887 12.7611C33.6251 12.3988 33.9581 11.9071 34.389 11.2846L33.5668 10.7154C33.1338 11.3409 32.7948 11.8412 32.5511 12.2149L33.3887 12.7611ZM34.39 11.2833C34.6619 10.8877 34.8756 10.534 35.023 10.2257C35.165 9.9289 35.2699 9.62515 35.2699 9.344H34.2699C34.2699 9.39885 34.2429 9.5391 34.1209 9.79427C34.0043 10.038 33.8219 10.3443 33.5659 10.7167L34.39 11.2833ZM35.2699 9.344C35.2699 9.15501 35.2102 8.92952 35.0149 8.76431C34.8357 8.61263 34.6205 8.58 34.4579 8.58V9.58C34.5034 9.58 34.4442 9.59137 34.369 9.52769C34.3292 9.49407 34.3012 9.45234 34.2852 9.41176C34.2704 9.37422 34.2699 9.34816 34.2699 9.344H35.2699ZM34.4579 8.58C34.1465 8.58 33.8614 8.68613 33.6119 8.86763L34.2 9.67637C34.3025 9.60187 34.3854 9.58 34.4579 9.58V8.58ZM33.6286 8.85597C33.3581 9.03629 33.1408 9.29327 33.078 9.63856L34.0619 9.81744C34.0631 9.81073 34.0698 9.76371 34.1833 9.68802L33.6286 8.85597ZM33.2164 9.37444L33.1684 9.42244L33.8755 10.1296L33.9235 10.0816L33.2164 9.37444ZM33.5219 9.276H33.4499V10.276H33.5219V9.276ZM33.6735 9.32878L33.6255 9.30478L33.1783 10.1992L33.2263 10.2232L33.6735 9.32878ZM33.8961 9.82803C33.9008 9.79732 33.9278 9.70962 34.1056 9.5792L33.5143 8.7728C33.2121 8.99438 32.967 9.29068 32.9078 9.67597L33.8961 9.82803ZM34.1006 9.58287C34.2799 9.45478 34.4417 9.38398 34.5867 9.3529L34.3772 8.3751C34.0742 8.44002 33.788 8.57722 33.5193 8.76913L34.1006 9.58287ZM34.58 9.35429C34.6283 9.34462 34.6755 9.34 34.7219 9.34V8.34C34.6084 8.34 34.4955 8.35138 34.3839 8.37371L34.58 9.35429ZM34.8041 9.3332C34.8786 9.32079 34.9386 9.316 34.9859 9.316V8.316C34.8733 8.316 34.7573 8.32721 34.6397 8.3468L34.8041 9.3332ZM34.9859 9.316C35.2303 9.316 35.3214 9.36619 35.3435 9.38353C35.3507 9.38914 35.3542 9.39343 35.3583 9.40318C35.3638 9.41596 35.3739 9.44839 35.3739 9.512H36.3739C36.3739 9.16605 36.2574 8.8293 35.9604 8.59647C35.6865 8.38181 35.3336 8.316 34.9859 8.316V9.316ZM35.3739 9.512C35.3739 9.70149 35.2856 10.0301 35.0275 10.5309C34.7763 11.0184 34.3911 11.6187 33.8633 12.3356L34.6686 12.9284C35.2128 12.1893 35.6316 11.5416 35.9164 10.9891C36.1942 10.4499 36.3739 9.94651 36.3739 9.512H35.3739ZM33.8594 12.3409C32.8372 13.7687 32.2539 15.037 32.2539 16.112H33.2539C33.2539 15.363 33.6786 14.3113 34.6725 12.9231L33.8594 12.3409ZM32.2539 16.112C32.2539 16.4141 32.3127 16.7334 32.5147 16.9839C32.7333 17.2549 33.045 17.356 33.3539 17.356V16.356C33.3047 16.356 33.2846 16.3483 33.2824 16.3474C33.2815 16.347 33.2835 16.3478 33.2868 16.3502C33.2901 16.3527 33.2923 16.3551 33.2931 16.3561C33.2952 16.3586 33.2539 16.3059 33.2539 16.112H32.2539ZM33.3539 17.356C33.6651 17.356 33.958 17.2115 34.2107 17.0346C34.4728 16.8511 34.751 16.5905 35.0439 16.2683C35.6308 15.6228 36.3279 14.6726 37.1333 13.4323L36.2946 12.8877C35.5 14.1114 34.8371 15.0092 34.304 15.5957C34.0369 15.8895 33.815 16.0909 33.6372 16.2154C33.5491 16.277 33.4799 16.3141 33.4286 16.3349C33.4035 16.345 33.3849 16.3504 33.3721 16.3532C33.3595 16.356 33.3538 16.356 33.3539 16.356V17.356ZM37.1339 13.4314C38.4763 11.3538 39.5458 10.0649 40.344 9.48437L39.7559 8.67563C38.7941 9.37509 37.6396 10.8062 36.294 12.8886L37.1339 13.4314ZM40.3548 9.47631C40.548 9.32769 40.7041 9.22794 40.8255 9.16721C40.8856 9.13719 40.9317 9.11949 40.965 9.10968C40.9988 9.09976 41.0124 9.1 41.0099 9.1V8.1C40.7875 8.1 40.5707 8.17658 40.3783 8.27279C40.1798 8.37206 39.9679 8.51231 39.7451 8.68369L40.3548 9.47631ZM41.0099 9.1C41.0209 9.1 40.9372 9.10239 40.8544 9.01955C40.7715 8.93671 40.7739 8.85307 40.7739 8.864H41.7739C41.7739 8.69893 41.7323 8.48329 41.5615 8.31245C41.3907 8.14161 41.175 8.1 41.0099 8.1V9.1ZM40.7739 8.864C40.7739 8.81217 40.7893 8.76822 40.8064 8.73891C40.8214 8.71331 40.8323 8.70792 40.8196 8.71798C40.8071 8.72784 40.7801 8.74611 40.7313 8.76982C40.6833 8.79319 40.6203 8.81884 40.5398 8.84566L40.8561 9.79434C41.072 9.72235 41.2786 9.63002 41.4403 9.50202C41.6065 9.37043 41.7739 9.15846 41.7739 8.864H40.7739ZM40.5583 8.8399C39.5246 9.1406 38.6969 9.87626 38.0588 10.9628L38.9211 11.4692C39.467 10.5397 40.1113 10.0114 40.8376 9.8001L40.5583 8.8399ZM38.0537 10.9717C37.8167 11.3949 37.6065 11.8495 37.4224 12.3347L38.3574 12.6893C38.5254 12.2465 38.7152 11.8371 38.9262 11.4603L38.0537 10.9717ZM37.4224 12.3347C37.2323 12.8358 37.096 13.3753 37.0113 13.9513L38.0006 14.0967C38.0759 13.5847 38.1955 13.1161 38.3574 12.6893L37.4224 12.3347ZM37.0167 13.921C36.9509 14.2332 36.8934 14.5456 36.8441 14.858L37.8318 15.014C37.8785 14.7184 37.9329 14.4228 37.9952 14.127L37.0167 13.921ZM36.8407 14.8837C36.8096 15.179 36.7707 15.4745 36.7241 15.77L37.7118 15.926C37.7612 15.6135 37.8023 15.301 37.8352 14.9883L36.8407 14.8837ZM36.7287 15.745C36.665 16.0473 36.6014 16.3414 36.5378 16.6275L37.514 16.8445C37.5785 16.5546 37.6428 16.2567 37.7072 15.951L36.7287 15.745ZM36.5378 16.6275C36.4782 16.8958 36.3952 17.1911 36.2876 17.5139L37.2363 17.8301C37.3527 17.4809 37.4457 17.1522 37.514 16.8445L36.5378 16.6275ZM36.9701 18.1266C39.1732 17.1176 40.8248 15.4977 41.9145 13.2849L41.0174 12.8431C40.027 14.8543 38.5427 16.3064 36.5537 17.2174L36.9701 18.1266ZM41.8947 13.3212C41.9094 13.2968 41.907 13.3061 41.8855 13.3276C41.874 13.3391 41.8468 13.3644 41.8033 13.3886C41.7588 13.4133 41.6839 13.444 41.5859 13.444V12.444C41.3663 12.444 41.2259 12.573 41.1784 12.6204C41.1169 12.6819 41.0705 12.7512 41.0372 12.8068L41.8947 13.3212ZM41.5859 13.444C41.5441 13.444 41.4528 13.4362 41.3566 13.372C41.2502 13.3011 41.1944 13.1994 41.1729 13.1133C41.1543 13.0389 41.1624 12.9841 41.1647 12.9698C41.1677 12.9521 41.1706 12.9476 41.1658 12.9604L42.1021 13.3116C42.1306 13.2355 42.1907 13.0616 42.143 12.8707C42.1135 12.7526 42.0417 12.6269 41.9113 12.54C41.7911 12.4598 41.6678 12.444 41.5859 12.444V13.444ZM41.1829 12.9203C40.6788 13.9743 40.0321 14.8859 39.2438 15.659L39.944 16.373C40.8197 15.5141 41.5331 14.5057 42.085 13.3517L41.1829 12.9203ZM39.2439 15.659C38.4762 16.4116 37.5541 17.0179 36.4713 17.4754L36.8605 18.3966C38.0498 17.8941 39.0797 17.2204 39.944 16.373L39.2439 15.659ZM36.2022 17.749C35.8159 18.7071 35.3746 19.4855 34.8844 20.0945L35.6634 20.7215C36.2293 20.0185 36.716 19.1489 37.1297 18.123L36.2022 17.749ZM34.8762 20.105C34.4184 20.7058 33.7532 21.2467 32.8574 21.7174L33.3225 22.6026C34.3147 22.0813 35.1054 21.4542 35.6717 20.711L34.8762 20.105ZM32.8546 21.7188C32.204 22.0658 31.5325 22.236 30.8339 22.236V23.236C31.7034 23.236 32.5359 23.0222 33.3252 22.6012L32.8546 21.7188ZM30.9779 23.02C33.0468 23.02 34.6053 21.4702 35.7344 18.8029L34.8135 18.4131C33.7346 20.9618 32.429 22.02 30.9779 22.02V23.02ZM35.1158 18.1337C34.8789 18.2126 34.6095 18.2998 34.3074 18.3952L34.6085 19.3488C34.9144 19.2522 35.189 19.1634 35.4321 19.0823L35.1158 18.1337ZM34.2851 18.4028C33.9987 18.5083 33.6786 18.6076 33.3237 18.7002L33.5761 19.6678C33.9573 19.5684 34.3091 19.4597 34.6308 19.3412L34.2851 18.4028ZM33.3029 18.7061C33.0964 18.7696 32.8337 18.8493 32.5143 18.9451L32.8016 19.9029C33.1222 19.8067 33.3874 19.7264 33.597 19.6619L33.3029 18.7061ZM32.4928 18.9521C32.1667 19.0662 31.7938 19.204 31.3744 19.3653L31.7334 20.2987C32.1461 20.14 32.5091 20.0058 32.8231 19.8959L32.4928 18.9521ZM31.302 19.4001C31.0958 19.5204 30.8977 19.6495 30.7079 19.7876L31.296 20.5964C31.4582 20.4785 31.6281 20.3676 31.8059 20.2639L31.302 19.4001ZM30.6853 19.805C30.4953 19.9605 30.307 20.1318 30.1204 20.3184L30.8275 21.0256C30.9928 20.8602 31.1566 20.7115 31.3186 20.579L30.6853 19.805ZM30.1071 20.3323C29.6752 20.7987 29.3739 21.3086 29.3739 21.848H30.3739C30.3739 21.6834 30.4727 21.4093 30.8408 21.0117L30.1071 20.3323ZM29.3739 21.848C29.3739 22.238 29.5498 22.572 29.89 22.7791C30.1899 22.9617 30.5755 23.02 30.9779 23.02V22.02C30.6444 22.02 30.478 21.9663 30.4099 21.9249C30.3956 21.9162 30.3884 21.9096 30.3853 21.9065C30.3824 21.9036 30.3817 21.9022 30.3815 21.9018C30.3813 21.9014 30.3797 21.8985 30.378 21.8913C30.3762 21.8836 30.3739 21.8698 30.3739 21.848H29.3739Z" fill="#CE1D0E"/>
</svg>
