<svg width="40" height="40" viewBox="0 0 40 40" fill="none" xmlns="http://www.w3.org/2000/svg">
<path fill-rule="evenodd" clip-rule="evenodd" d="M27.7245 24.2365C32.2071 23.247 35.5561 19.253 35.5561 14.4703C35.5561 14.3282 35.5518 14.1947 35.5476 14.0654C35.5437 13.944 35.5399 13.8262 35.5399 13.7084C35.1671 8.79681 31.2449 4.874 26.334 4.50117C26.3062 4.49953 26.2787 4.49789 26.2514 4.49627C26.0092 4.48185 25.7892 4.46875 25.5561 4.46875C20.7672 4.46875 16.7692 7.82786 15.7871 12.3209C22.0805 12.9448 27.09 17.9469 27.7245 24.2365Z" fill="url(#paint0_linear_687_27230)"/>
<path fill-rule="evenodd" clip-rule="evenodd" d="M14.4414 35.5656C19.9681 35.5656 24.4414 31.0916 24.4414 25.564C24.4414 25.4219 24.4371 25.2885 24.4329 25.1592C24.429 25.0377 24.4252 24.9199 24.4252 24.8022C24.0524 19.8906 20.1302 15.9677 15.2194 15.5949C15.1915 15.5933 15.164 15.5916 15.1368 15.59C14.8945 15.5756 14.6745 15.5625 14.4414 15.5625C8.91466 15.5625 4.44141 20.0364 4.44141 25.564C4.44141 31.0916 8.91466 35.5656 14.4414 35.5656ZM12.5199 20.1219H14.3945H14.3947C15.9462 20.1221 17.4975 20.1224 19.049 20.1217C19.5215 20.1215 19.8724 20.335 20.0741 20.7772C20.3943 21.4793 19.9129 22.3087 19.1652 22.3466C18.9525 22.3574 18.7392 22.3549 18.5259 22.3523C18.4302 22.3512 18.3344 22.3501 18.2387 22.3501C17.9497 22.3504 17.6607 22.3507 17.3716 22.351C16.7944 22.3515 16.2171 22.352 15.64 22.3528C15.4607 22.353 15.4607 22.3537 15.4607 22.5448V25.5874C15.4607 25.7541 15.4605 25.7566 15.3059 25.7645C14.9339 25.7839 14.5622 25.7704 14.1906 25.7569C14.0053 25.7502 13.82 25.7435 13.6347 25.7408C13.6047 25.7405 13.5747 25.7383 13.5447 25.7361C13.5037 25.7331 13.4627 25.7301 13.4219 25.7317C13.332 25.7355 13.2998 25.6923 13.3062 25.6048C13.3078 25.5825 13.3073 25.56 13.3068 25.5376C13.3066 25.5269 13.3064 25.5161 13.3064 25.5054V22.5293C13.3064 22.3541 13.3062 22.353 13.1333 22.353C12.8791 22.353 12.6249 22.3529 12.3707 22.3528C11.4817 22.3526 10.5927 22.3523 9.70373 22.353C9.22342 22.3534 8.87891 22.1249 8.68384 21.6753C8.36981 20.9518 8.89191 20.1281 9.66557 20.1235C10.3346 20.1194 11.0036 20.1203 11.6726 20.1212C11.9551 20.1215 12.2375 20.1219 12.5199 20.1219ZM19.1224 24.0071C19.0863 23.9937 19.0501 23.9804 19.0141 23.9666C19.5662 24.1144 20.0999 24.3013 20.5881 24.6062C20.7437 24.7035 20.8899 24.8135 21.0176 24.9489C21.3781 25.3307 21.3794 25.7444 21.021 26.1255C20.853 26.3042 20.655 26.44 20.4448 26.5576C19.8329 26.9 19.1725 27.098 18.4992 27.2548C17.7895 27.4202 17.0709 27.5303 16.3458 27.5921C16.2887 27.5969 16.2317 27.6019 16.1746 27.6069C15.9703 27.6246 15.7661 27.6424 15.5615 27.6543C15.4607 27.6603 15.4602 27.7212 15.4602 27.7959C15.4607 28.5701 15.4611 29.3446 15.4598 30.1188C15.4596 30.2108 15.4551 30.3031 15.4451 30.3946C15.3856 30.9378 14.9202 31.358 14.3813 31.3575C13.8411 31.3573 13.3791 30.9376 13.3211 30.3917C13.3115 30.3002 13.307 30.2077 13.307 30.1157C13.3062 29.5898 13.3062 29.0638 13.3062 28.5379C13.3062 28.3042 13.3062 28.0705 13.3062 27.8368C13.306 27.6771 13.3034 27.6676 13.1572 27.6623C12.7425 27.6472 12.3289 27.6145 11.9168 27.5662C10.6838 27.4216 9.46368 27.2165 8.32057 26.6792C8.0317 26.5434 7.75839 26.3789 7.53071 26.1446C7.47805 26.0905 7.42944 26.0305 7.38638 25.9678C7.19344 25.6877 7.19493 25.3869 7.3883 25.1061C7.56439 24.8503 7.80892 24.6804 8.06815 24.5316C8.52395 24.2696 9.01407 24.0991 9.51655 23.9633C9.46564 23.984 9.41452 24.0043 9.3634 24.0245C9.24778 24.0703 9.13214 24.1161 9.01876 24.1673C8.80301 24.2643 8.59643 24.3792 8.42801 24.5549C8.19607 24.7965 8.19436 25.0634 8.42631 25.3034C8.64248 25.5271 8.91387 25.6567 9.19293 25.769C9.84572 26.0321 10.5279 26.1694 11.2174 26.2755C12.553 26.4812 13.8976 26.5113 15.243 26.465C16.3222 26.4278 17.3958 26.3155 18.4496 26.0531C18.8576 25.9514 19.2586 25.827 19.6366 25.6341C19.8155 25.5426 19.9862 25.4374 20.1248 25.2842C20.3295 25.0576 20.3305 24.7994 20.1229 24.5748C19.9084 24.3429 19.6328 24.214 19.3522 24.096C19.2765 24.064 19.1995 24.0356 19.1224 24.0071Z" fill="url(#paint1_linear_687_27230)"/>
<path opacity="0.7" d="M3.33203 16.6804V14.4583C3.33203 8.3218 8.30662 3.34721 14.4431 3.34721H15.5543L11.1098 1.125M36.6654 22.7915V25.5692C36.6654 31.7057 31.6908 36.6803 25.5543 36.6803H24.4431L28.8876 38.9025" stroke="#C8C8C8" stroke-width="1.5" stroke-linecap="round" stroke-linejoin="round"/>
<defs>
<linearGradient id="paint0_linear_687_27230" x1="25.6744" y1="4.35824" x2="29.7781" y2="24.0032" gradientUnits="userSpaceOnUse">
<stop stop-color="#939393"/>
<stop offset="1" stop-color="#262626"/>
</linearGradient>
<linearGradient id="paint1_linear_687_27230" x1="14.4442" y1="15.4507" x2="18.5976" y2="35.3293" gradientUnits="userSpaceOnUse">
<stop stop-color="#939393"/>
<stop offset="1" stop-color="#262626"/>
</linearGradient>
</defs>
</svg>
