<svg width="24" height="24" viewBox="0 0 24 24" fill="none" xmlns="http://www.w3.org/2000/svg">
<path fill-rule="evenodd" clip-rule="evenodd" d="M1 11.3355C1 8.75805 3.10187 6.65625 5.67938 6.65625H17.5905C20.168 6.65625 22.2699 8.75805 22.2699 11.3355V11.3519C22.1793 11.3379 22.087 11.3291 21.9934 11.3257C21.9818 11.3253 21.9702 11.3251 21.9587 11.3251H19.2611C18.2784 11.3251 17.3687 11.7118 16.7052 12.3885C15.9676 13.1136 15.5418 14.1582 15.6465 15.2764C15.8143 17.251 17.5886 18.5877 19.4167 18.5877H21.9587C21.9702 18.5877 21.9818 18.5875 21.9934 18.5871C22.0849 18.5838 22.175 18.5753 22.2636 18.5619C22.136 21.0267 20.0862 22.9972 17.5905 22.9972H5.67938C3.10187 22.9972 1 20.8954 1 18.318V11.3355ZM6.37484 10.0015C5.98499 10.0015 5.66896 10.3373 5.66896 10.7515C5.66896 11.1657 5.98499 11.5015 6.37484 11.5015H12.9631C13.3529 11.5015 13.669 11.1657 13.669 10.7515C13.669 10.3373 13.3529 10.0015 12.9631 10.0015H6.37484Z" fill="url(#paint0_linear_687_27265)"/>
<path d="M15.3705 5.15854H5.67977C5.30075 5.15854 4.83398 5.1508 4.83398 5.1508L11.6508 2.57526C12.0671 2.41838 12.5159 2.36462 12.9575 2.41906C13.399 2.47351 13.8208 2.63428 14.1865 2.88759C14.5523 3.14089 14.8511 3.47916 15.0573 3.87336C15.2635 4.26756 15.371 4.70592 15.3705 5.1508V5.15854Z" fill="url(#paint1_linear_687_27265)"/>
<path fill-rule="evenodd" clip-rule="evenodd" d="M17.6268 13.119C18.1008 12.6356 18.7505 12.3594 19.4524 12.3594H21.3793C21.3875 12.3594 21.3958 12.3595 21.4041 12.3598C22.2869 12.3913 23.0004 13.1058 23.0004 13.999V15.9073C23.0004 16.8006 22.2869 17.515 21.4041 17.5465C21.3958 17.5468 21.3875 17.547 21.3793 17.547H19.5636C18.2578 17.547 16.9904 16.5922 16.8706 15.1817C16.7958 14.383 17.0999 13.6369 17.6268 13.119Z" fill="url(#paint2_linear_687_27265)"/>
<defs>
<linearGradient id="paint0_linear_687_27265" x1="11.6349" y1="6.65625" x2="14.2576" y2="22.9973" gradientUnits="userSpaceOnUse">
<stop stop-color="#939393"/>
<stop offset="1" stop-color="#262626"/>
</linearGradient>
<linearGradient id="paint1_linear_687_27265" x1="8.18532" y1="2.49854" x2="8.18532" y2="4.99854" gradientUnits="userSpaceOnUse">
<stop stop-color="#939393"/>
<stop offset="1" stop-color="#C8C8C8"/>
</linearGradient>
<linearGradient id="paint2_linear_687_27265" x1="19.9299" y1="12.3594" x2="19.9299" y2="17.547" gradientUnits="userSpaceOnUse">
<stop stop-color="#939393"/>
<stop offset="1" stop-color="#C8C8C8"/>
</linearGradient>
</defs>
</svg>
