<svg width="24" height="24" viewBox="0 0 24 24" fill="none" xmlns="http://www.w3.org/2000/svg">
<g clip-path="url(#clip0_687_27277)">
<path d="M15.6 6.99805H6.26C3.77579 6.99805 1.75 9.02383 1.75 11.508V7.83889C1.75 6.33856 2.67155 4.9983 4.07458 4.46743L12.0149 1.4673C12.4162 1.31609 12.8487 1.26428 13.2743 1.31676C13.6999 1.36923 14.1063 1.52419 14.4588 1.76833C14.8113 2.01248 15.0993 2.33852 15.2981 2.71846C15.4969 3.09841 15.6005 3.52091 15.6 3.9497V6.99805Z" stroke="#C8C8C8" stroke-width="1.5" stroke-linecap="round" stroke-linejoin="round"/>
<path d="M22.25 12.95V11.51C22.25 9.02579 20.2242 7 17.74 7H6.26C3.77579 7 1.75 9.02579 1.75 11.51V18.24C1.75 20.7242 3.77579 22.75 6.26 22.75H17.74C20.2242 22.75 22.25 20.7242 22.25 18.24V17.05" stroke="#262626" stroke-width="1.5"/>
<path fill-rule="evenodd" clip-rule="evenodd" d="M17.5082 13.0231C18.0198 12.5013 18.7212 12.2031 19.4788 12.2031H21.5588C21.5678 12.2031 21.5767 12.2033 21.5856 12.2036C22.5386 12.2376 23.3088 13.0089 23.3088 13.9731V16.0331C23.3088 16.9974 22.5386 17.7686 21.5856 17.8026C21.5767 17.803 21.5678 17.8031 21.5588 17.8031H19.5988C18.1893 17.8031 16.8212 16.7724 16.6918 15.2498C16.6111 14.3876 16.9394 13.5822 17.5082 13.0231Z" stroke="#262626" stroke-width="1.5" stroke-linecap="round" stroke-linejoin="round"/>
<path d="M7 12H14" stroke="#C8C8C8" stroke-width="1.5" stroke-linecap="round" stroke-linejoin="round"/>
</g>
<defs>
<clipPath id="clip0_687_27277">
<rect width="24" height="24" fill="white"/>
</clipPath>
</defs>
</svg>
