<svg width="42" height="42" viewBox="0 0 42 42" fill="none" xmlns="http://www.w3.org/2000/svg">
<mask id="mask0_712_27972" style="mask-type:alpha" maskUnits="userSpaceOnUse" x="0" y="0" width="42" height="42">
<path d="M8.41176 21.2353H0V0H42V42H4.94118L15.8235 29.4706L8.41176 21.2353Z" fill="#D9D9D9"/>
</mask>
<g mask="url(#mask0_712_27972)">
<path d="M26.2208 13.9721H13.1581C9.68379 13.9721 6.85059 16.8048 6.85059 20.2786V15.1479C6.85059 13.0499 8.13944 11.1758 10.1017 10.4335L21.2068 6.23831C21.768 6.02687 22.3729 5.95443 22.9681 6.0278C23.5633 6.10118 24.1318 6.31786 24.6248 6.65926C25.1178 7.00065 25.5206 7.45656 25.7985 7.98784C26.0765 8.51913 26.2214 9.10993 26.2208 9.70952V13.9721Z" stroke="#C8C8C8" stroke-width="1.5" stroke-linecap="round" stroke-linejoin="round"/>
<path d="M35.5212 21.2966V20.283C35.5212 16.8093 32.688 13.9766 29.2137 13.9766H13.1581C9.68379 13.9766 6.85059 16.8093 6.85059 20.283V29.6938C6.85059 33.1675 9.68379 36.0002 13.1581 36.0002H29.2137C32.688 36.0002 35.5212 33.1675 35.5212 29.6938V29.0298" stroke="#939393" stroke-width="1.5"/>
<path fill-rule="evenodd" clip-rule="evenodd" d="M28.8901 22.3966C29.6056 21.667 30.5866 21.25 31.6463 21.25H34.5553C34.5678 21.25 34.5802 21.2502 34.5927 21.2507C35.9256 21.2983 37.0028 22.3767 37.0028 23.725V26.6056C37.0028 27.9539 35.9256 29.0324 34.5927 29.08C34.5802 29.0804 34.5678 29.0806 34.5553 29.0806H31.8141C29.8428 29.0806 27.9293 27.6394 27.7484 25.5103C27.6355 24.3046 28.0946 23.1784 28.8901 22.3966Z" stroke="#939393" stroke-width="1.5" stroke-linecap="round" stroke-linejoin="round"/>
<path d="M14.1934 20.9688H23.9833" stroke="#C8C8C8" stroke-width="1.5" stroke-linecap="round" stroke-linejoin="round"/>
</g>
<path d="M8.42941 24L12 28L8.42941 32M4 28H11.9" stroke="#CE1D0E" stroke-width="1.5" stroke-miterlimit="10" stroke-linecap="round" stroke-linejoin="round"/>
</svg>
